<svg width="100" height="40" viewBox="0 0 100 40" fill="none" xmlns="http://www.w3.org/2000/svg">
<g id="bloomberg-1" clip-path="url(#clip0_2_915)">
<path id="Vector" d="M0 10.7773H7.33126C8.72769 10.7773 9.77502 11.1261 10.5508 11.7074C11.4042 12.4049 11.8697 13.4124 11.8697 14.6524C11.8697 16.0862 11.2878 16.9775 10.1241 17.52V17.5975C11.6757 18.1013 12.5679 19.4963 12.5679 21.1626C12.5679 22.7514 11.9472 23.9914 10.9387 24.7665C10.0853 25.3865 8.99922 25.6577 7.52521 25.6577H0V10.7773ZM6.59426 16.59C7.37005 16.59 7.9519 16.1637 7.9519 15.2725C7.9519 14.4199 7.37005 13.9937 6.55547 13.9937H4.03414V16.5512H6.59426V16.59ZM6.94337 22.3639C7.83553 22.3639 8.49496 21.8214 8.49496 20.8526C8.49496 19.8063 7.79674 19.3413 6.94337 19.3413H4.07293V22.4026H6.94337V22.3639ZM13.2273 10.7773H17.0675V25.6965H13.2273V10.7773ZM17.8433 20.3876C17.8433 17.0163 20.0155 14.7687 23.3902 14.7687C26.7649 14.7687 28.8984 17.055 28.8984 20.3876C28.8984 23.7589 26.7649 26.0065 23.3902 26.0065C20.0155 26.0065 17.8433 23.7589 17.8433 20.3876ZM25.0582 20.3876C25.0582 18.5275 24.4763 17.365 23.3126 17.365C22.149 17.365 21.6059 18.5275 21.6059 20.3876C21.6059 22.2476 22.149 23.4489 23.3126 23.4489C24.4763 23.4102 25.0582 22.2476 25.0582 20.3876ZM29.3251 20.3876C29.3251 17.0163 31.4973 14.7687 34.872 14.7687C38.2467 14.7687 40.3414 17.0163 40.3414 20.3876C40.3414 23.7589 38.2079 26.0065 34.8332 26.0065C31.4973 26.0065 29.3251 23.7589 29.3251 20.3876ZM36.54 20.3876C36.54 18.5275 35.9581 17.365 34.7944 17.365C33.6307 17.365 33.0877 18.5275 33.0877 20.3876C33.0877 22.2476 33.6307 23.4489 34.7944 23.4489C35.9581 23.4102 36.54 22.2476 36.54 20.3876ZM41.1171 15.04H44.6858V16.6287H44.7634C45.4616 15.3887 46.4313 14.7299 47.9829 14.7299C49.3406 14.7299 50.3491 15.3887 50.8534 16.5512H50.931C51.7843 15.1562 52.9092 14.7299 54.2281 14.7299C56.7106 14.7299 57.758 16.5512 57.758 18.9926V25.6577H54.0341V19.6513C54.0341 18.5663 53.685 17.8688 52.7541 17.8688C51.8231 17.8688 51.3576 18.7213 51.3576 19.8838V25.6577H47.6338V19.6513C47.6338 18.5663 47.2847 17.8688 46.3538 17.8688C45.4228 17.8688 44.9573 18.7213 44.9573 19.8838V25.6577H41.1171V15.04ZM62.4515 24.2627H62.4127V25.6577H58.8441V10.7773H62.5679V16.125H62.6455C63.3437 15.195 64.3134 14.6912 65.6711 14.6912C68.3476 14.6912 69.8992 17.0938 69.8992 20.3101C69.8992 23.9139 68.2312 26.0065 65.4383 26.0065C64.2746 26.0065 63.0722 25.464 62.4515 24.2627ZM66.059 20.2713C66.059 18.5663 65.4383 17.4425 64.3134 17.4425C63.1497 17.4425 62.4515 18.5663 62.4515 20.2713C62.4515 21.9764 63.1885 23.1002 64.3134 23.1002C65.4383 23.1002 66.059 22.0151 66.059 20.2713ZM70.3258 20.3488C70.3258 17.0163 72.5369 14.7299 75.7176 14.7299C77.308 14.7299 78.5105 15.2337 79.4414 16.125C80.6827 17.3263 81.2258 19.1863 81.187 21.3564H74.0497C74.2048 22.6739 74.8254 23.3714 75.9503 23.3714C76.6098 23.3714 77.1916 23.0614 77.4244 22.3639H81.0318C80.4112 24.8052 78.5105 26.0065 75.834 26.0065C72.5368 25.9677 70.3258 23.7202 70.3258 20.3488ZM74.0497 19.2251H77.4632C77.3856 17.9463 76.6874 17.2875 75.7952 17.2875C74.7479 17.2488 74.166 17.985 74.0497 19.2251ZM85.4151 16.8613H85.4926C86.2684 15.3887 87.277 14.8074 88.557 14.8074C88.8673 14.8074 89.0613 14.8462 89.1777 14.9237V18.1788H89.1001C86.8891 17.7913 85.609 18.8376 85.609 21.2401V25.6965H81.8464V15.04H85.4151V16.8613ZM89.5656 25.6965H93.173C93.3282 26.1615 93.7936 26.5878 94.6858 26.5878C95.8883 26.5878 96.315 25.8515 96.315 24.7277V23.9527H96.2374C95.6556 24.6502 94.841 25.154 93.6773 25.154C91.3887 25.154 89.3716 23.4489 89.3716 20.1163C89.3716 17.055 91.0008 14.6912 93.4833 14.6912C94.9185 14.6912 95.7719 15.2725 96.3538 16.1637H96.4314V15.0012H100V24.2239C100 25.929 99.4182 27.2465 98.526 28.0215C97.595 28.8353 96.2762 29.1841 94.7634 29.1841C91.8929 29.2228 89.9147 28.0603 89.5656 25.6965ZM96.4701 19.9613C96.4701 18.6438 95.8495 17.5588 94.7634 17.5588C93.7161 17.5588 93.0566 18.4888 93.0566 19.9613C93.0566 21.3951 93.7161 22.4026 94.7634 22.4026C95.8107 22.4026 96.4701 21.3564 96.4701 19.9613Z" fill="white"/>
</g>
<defs>
<clipPath id="clip0_2_915">
<rect width="100" height="40" fill="white"/>
</clipPath>
</defs>
</svg>
