<svg width="97" height="14" viewBox="0 0 97 14" fill="none" xmlns="http://www.w3.org/2000/svg">
<path id="Vector" d="M4.99836 11.2026C2.1554 11.2026 0.358337 9.19495 0.358337 5.96583C0.358337 2.75778 2.16978 0.736084 4.99836 0.736084C7.29358 0.736084 9.0281 2.14707 9.29479 4.26006H7.73637C7.45531 2.96136 6.3742 2.11199 4.99836 2.11199C3.15961 2.11199 1.96563 3.62124 1.96563 5.96583C1.96563 8.33149 3.14522 9.82672 5.00555 9.82672C6.4166 9.82672 7.42009 9.10373 7.73637 7.88223H9.30126C8.91525 9.97415 7.3288 11.2026 4.99836 11.2026ZM10.5369 11.0341V3.64934H11.9832V4.90585H12.0184C12.2643 4.0424 12.9234 3.52995 13.7939 3.52995C14.0117 3.52995 14.2015 3.5651 14.3136 3.58616V4.99714C14.1943 4.94798 13.9276 4.9129 13.6329 4.9129C12.6567 4.9129 12.0536 5.56573 12.0536 6.6117V11.0341H10.5369ZM15.9842 13.7859C15.8649 13.7859 15.4788 13.7719 15.3667 13.7508V12.5223C15.4788 12.5504 15.7319 12.5504 15.8584 12.5504C16.5672 12.5504 16.9388 12.2556 17.171 11.4974C17.171 11.4834 17.304 11.0482 17.304 11.0412L14.6364 3.64934H16.2789L18.1536 9.65823H18.1745L20.0492 3.64934H21.6493L18.8767 11.4202C18.2449 13.2102 17.5218 13.7859 15.9842 13.7859ZM26.3878 3.52995C28.2617 3.52995 29.4974 5.00412 29.4974 7.34174C29.4974 9.67929 28.2689 11.1605 26.4158 11.1605C25.3555 11.1605 24.5138 10.641 24.0926 9.81968H24.0573V13.477H22.5406V3.64934H24.0077V4.91987H24.0358C24.4714 4.0705 25.321 3.52995 26.3878 3.52995ZM25.9874 9.87589C27.1878 9.87589 27.939 8.89311 27.939 7.34174C27.939 5.79734 27.1878 4.80759 25.9874 4.80759C24.8293 4.80759 24.0501 5.8184 24.0501 7.34174C24.0501 8.87909 24.8222 9.87589 25.9874 9.87589ZM31.1119 1.90137H32.6351V3.64934H34.0389V4.84971H32.6351V8.92115C32.6351 9.55997 32.9161 9.84778 33.5336 9.84778C33.6882 9.84778 33.934 9.83377 34.0325 9.81271V11.0131C33.8636 11.0552 33.5271 11.0833 33.19 11.0833C31.6949 11.0833 31.1119 10.5146 31.1119 9.08964V4.84971H30.038V3.64934H31.1119V1.90137ZM38.2793 11.1745C36.166 11.1745 34.7765 9.72141 34.7765 7.34174C34.7765 4.96904 36.1731 3.51593 38.2793 3.51593C40.3855 3.51593 41.7821 4.96904 41.7821 7.34174C41.7821 9.72141 40.3919 11.1745 38.2793 11.1745ZM38.2793 9.92499C39.4726 9.92499 40.2381 8.98433 40.2381 7.34174C40.2381 5.70612 39.4654 4.76547 38.2793 4.76547C37.0932 4.76547 36.3205 5.70612 36.3205 7.34174C36.3205 8.98433 37.0932 9.92499 38.2793 9.92499ZM49.2932 6.19047H47.8469C47.6931 5.40429 47.1029 4.77948 46.1131 4.77948C44.9407 4.77948 44.1687 5.75522 44.1687 7.34174C44.1687 8.96327 44.9479 9.90392 46.1274 9.90392C47.0612 9.90392 47.6715 9.39147 47.8469 8.53506H49.3075C49.1458 10.1075 47.8893 11.1745 46.1131 11.1745C44.0004 11.1745 42.6246 9.72846 42.6246 7.34174C42.6246 4.99714 44.0004 3.51593 46.0994 3.51593C48.0014 3.51593 49.1602 4.73736 49.2932 6.19047ZM56.7129 3.64934V11.0341H55.2601V9.7846H55.2249C54.8181 10.6691 54.0669 11.1675 52.9369 11.1675C51.3289 11.1675 50.3462 10.1216 50.3462 8.42983V3.64934H51.8622V8.13496C51.8622 9.25813 52.3963 9.8618 53.4422 9.8618C54.537 9.8618 55.1969 9.10373 55.1969 7.95245V3.64934H56.7129ZM58.2152 11.0341V3.64934H59.6615V4.90585H59.6967C59.9426 4.0424 60.6025 3.52995 61.473 3.52995C61.69 3.52995 61.8798 3.5651 61.992 3.58616V4.99714C61.8726 4.94798 61.6059 4.9129 61.3112 4.9129C60.3358 4.9129 59.732 5.56573 59.732 6.6117V11.0341H58.2152ZM62.9329 11.0341V3.64934H64.3792V4.90585H64.4137C64.6595 4.0424 65.3194 3.52995 66.1899 3.52995C66.4077 3.52995 66.5967 3.5651 66.7096 3.58616V4.99714C66.5903 4.94798 66.3236 4.9129 66.0282 4.9129C65.0527 4.9129 64.4489 5.56573 64.4489 6.6117V11.0341H62.9329ZM70.4159 4.73736C69.3556 4.73736 68.6116 5.54467 68.5347 6.6608H72.2266C72.1921 5.53066 71.4761 4.73736 70.4159 4.73736ZM72.2201 8.865H73.6592C73.4486 10.2128 72.1705 11.1745 70.4791 11.1745C68.3097 11.1745 66.9971 9.7074 66.9971 7.37682C66.9971 5.06033 68.3313 3.51593 70.4159 3.51593C72.466 3.51593 73.7433 4.96199 73.7433 7.20135V7.72078H68.5275V7.81207C68.5275 9.09668 69.2995 9.94605 70.5144 9.94605C71.3777 9.94605 72.0167 9.51087 72.2201 8.865ZM74.9222 11.0341V3.64934H76.3685V4.88479H76.4037C76.8041 4.0424 77.5898 3.52297 78.7269 3.52297C80.3558 3.52297 81.2896 4.5619 81.2896 6.25365V11.0341H79.7664V6.54851C79.7664 5.43937 79.2467 4.82865 78.1936 4.82865C77.1268 4.82865 76.4389 5.5868 76.4389 6.73102V11.0341H74.9222ZM89.0953 6.19047H87.6497C87.4952 5.40429 86.905 4.77948 85.9152 4.77948C84.7435 4.77948 83.9708 5.75522 83.9708 7.34174C83.9708 8.96327 84.75 9.90392 85.9296 9.90392C86.8633 9.90392 87.4736 9.39147 87.6497 8.53506H89.1097C88.9479 10.1075 87.6914 11.1745 85.9152 11.1745C83.8026 11.1745 82.4268 9.72846 82.4268 7.34174C82.4268 4.99714 83.8026 3.51593 85.9016 3.51593C87.8036 3.51593 88.9623 4.73736 89.0953 6.19047ZM90.9139 13.7859C90.7946 13.7859 90.4079 13.7719 90.2957 13.7508V12.5223C90.4079 12.5504 90.6609 12.5504 90.7874 12.5504C91.4962 12.5504 91.8685 12.2556 92.1 11.4974C92.1 11.4834 92.2337 11.0482 92.2337 11.0412L89.5661 3.64934H91.2086L93.0826 9.65823H93.1035L94.9782 3.64934H96.5783L93.8058 11.4202C93.1739 13.2102 92.4508 13.7859 90.9139 13.7859Z" fill="white"/>
</svg>
