<svg width="342" height="251" viewBox="0 0 342 251" fill="none" xmlns="http://www.w3.org/2000/svg">
<path d="M4.2353 -42H-20V-17.6667M4.2353 -42V-17.6667M4.2353 -42H28.4706M4.2353 -17.6667H-20M4.2353 -17.6667H28.4706M4.2353 -17.6667V6.66667M-20 -17.6667V6.66667M28.4706 -42V-17.6667M28.4706 -42H52.7059M28.4706 -17.6667H52.7059M28.4706 -17.6667V6.66667M52.7059 -42V-17.6667M52.7059 -42H76.9412M52.7059 -17.6667H76.9412M52.7059 -17.6667V6.66667M76.9412 -42V-17.6667M76.9412 -42H101.176M76.9412 -17.6667H101.176M76.9412 -17.6667V6.66667M101.176 -42V-17.6667M101.176 -42H125.412M101.176 -17.6667H125.412M101.176 -17.6667V6.66667M125.412 -42V-17.6667M125.412 -42H149.647M125.412 -17.6667H149.647M125.412 -17.6667V6.66667M149.647 -42V-17.6667M149.647 -42H173.882M149.647 -17.6667H173.882M149.647 -17.6667V6.66667M173.882 -42V-17.6667M173.882 -42H198.118M173.882 -17.6667H198.118M173.882 -17.6667V6.66667M198.118 -42V-17.6667M198.118 -42H222.353M198.118 -17.6667H222.353M198.118 -17.6667V6.66667M222.353 -42V-17.6667M222.353 -42H246.588M222.353 -17.6667H246.588M222.353 -17.6667V6.66667M246.588 -42V-17.6667M246.588 -42H270.824M246.588 -17.6667H270.824M246.588 -17.6667V6.66667M270.824 -42V-17.6667M270.824 -42H295.059M270.824 -17.6667H295.059M270.824 -17.6667V6.66667M295.059 -42V-17.6667M295.059 -42H319.294M295.059 -17.6667H319.294M295.059 -17.6667V6.66667M319.294 -42V-17.6667M319.294 -42H343.529M319.294 -17.6667H343.529M319.294 -17.6667V6.66667M343.529 -42V-17.6667M343.529 -42H367.765M343.529 -17.6667H367.765M343.529 -17.6667V6.66667M367.765 -42V-17.6667M367.765 -42H392V-17.6667M367.765 -17.6667H392M367.765 -17.6667V6.66667M392 -17.6667V6.66667M4.2353 6.66667H-20M4.2353 6.66667H28.4706M4.2353 6.66667V31M-20 6.66667V31M28.4706 6.66667H52.7059M28.4706 6.66667V31M52.7059 6.66667H76.9412M52.7059 6.66667V31M76.9412 6.66667H101.176M76.9412 6.66667V31M101.176 6.66667H125.412M101.176 6.66667V31M125.412 6.66667H149.647M125.412 6.66667V31M149.647 6.66667H173.882M149.647 6.66667V31M173.882 6.66667H198.118M173.882 6.66667V31M198.118 6.66667H222.353M198.118 6.66667V31M222.353 6.66667H246.588M222.353 6.66667V31M246.588 6.66667H270.824M246.588 6.66667V31M270.824 6.66667H295.059M270.824 6.66667V31M295.059 6.66667H319.294M295.059 6.66667V31M319.294 6.66667H343.529M319.294 6.66667V31M343.529 6.66667H367.765M343.529 6.66667V31M367.765 6.66667H392M367.765 6.66667V31M392 6.66667V31M4.2353 31H-20M4.2353 31H28.4706M4.2353 31V55.3333M-20 31V55.3333M28.4706 31H52.7059M28.4706 31V55.3333M52.7059 31H76.9412M52.7059 31V55.3333M76.9412 31H101.176M76.9412 31V55.3333M101.176 31H125.412M101.176 31V55.3333M125.412 31H149.647M125.412 31V55.3333M149.647 31H173.882M149.647 31V55.3333M173.882 31H198.118M173.882 31V55.3333M198.118 31H222.353M198.118 31V55.3333M222.353 31H246.588M222.353 31V55.3333M246.588 31H270.824M246.588 31V55.3333M270.824 31H295.059M270.824 31V55.3333M295.059 31H319.294M295.059 31V55.3333M319.294 31H343.529M319.294 31V55.3333M343.529 31H367.765M343.529 31V55.3333M367.765 31H392M367.765 31V55.3333M392 31V55.3333M4.2353 55.3333H-20M4.2353 55.3333H28.4706M4.2353 55.3333V79.6667M-20 55.3333V79.6667M28.4706 55.3333H52.7059M28.4706 55.3333V79.6667M52.7059 55.3333H76.9412M52.7059 55.3333V79.6667M76.9412 55.3333H101.176M76.9412 55.3333V79.6667M101.176 55.3333H125.412M101.176 55.3333V79.6667M125.412 55.3333H149.647M125.412 55.3333V79.6667M149.647 55.3333H173.882M149.647 55.3333V79.6667M173.882 55.3333H198.118M173.882 55.3333V79.6667M198.118 55.3333H222.353M198.118 55.3333V79.6667M222.353 55.3333H246.588M222.353 55.3333V79.6667M246.588 55.3333H270.824M246.588 55.3333V79.6667M270.824 55.3333H295.059M270.824 55.3333V79.6667M295.059 55.3333H319.294M295.059 55.3333V79.6667M319.294 55.3333H343.529M319.294 55.3333V79.6667M343.529 55.3333H367.765M343.529 55.3333V79.6667M367.765 55.3333H392M367.765 55.3333V79.6667M392 55.3333V79.6667M4.2353 79.6667H-20M4.2353 79.6667H28.4706M4.2353 79.6667V104M-20 79.6667V104M28.4706 79.6667H52.7059M28.4706 79.6667V104M52.7059 79.6667H76.9412M52.7059 79.6667V104M76.9412 79.6667H101.176M76.9412 79.6667V104M101.176 79.6667H125.412M101.176 79.6667V104M125.412 79.6667H149.647M125.412 79.6667V104M149.647 79.6667H173.882M149.647 79.6667V104M173.882 79.6667H198.118M173.882 79.6667V104M198.118 79.6667H222.353M198.118 79.6667V104M222.353 79.6667H246.588M222.353 79.6667V104M246.588 79.6667H270.824M246.588 79.6667V104M270.824 79.6667H295.059M270.824 79.6667V104M295.059 79.6667H319.294M295.059 79.6667V104M319.294 79.6667H343.529M319.294 79.6667V104M343.529 79.6667H367.765M343.529 79.6667V104M367.765 79.6667H392M367.765 79.6667V104M392 79.6667V104M4.2353 104H-20M4.2353 104H28.4706M4.2353 104V128.333M-20 104V128.333M28.4706 104H52.7059M28.4706 104V128.333M52.7059 104H76.9412M52.7059 104V128.333M76.9412 104H101.176M76.9412 104V128.333M101.176 104H125.412M101.176 104V128.333M125.412 104H149.647M125.412 104V128.333M149.647 104H173.882M149.647 104V128.333M173.882 104H198.118M173.882 104V128.333M198.118 104H222.353M198.118 104V128.333M222.353 104H246.588M222.353 104V128.333M246.588 104H270.824M246.588 104V128.333M270.824 104H295.059M270.824 104V128.333M295.059 104H319.294M295.059 104V128.333M319.294 104H343.529M319.294 104V128.333M343.529 104H367.765M343.529 104V128.333M367.765 104H392M367.765 104V128.333M392 104V128.333M4.2353 128.333H-20M4.2353 128.333H28.4706M4.2353 128.333V152.667M-20 128.333V152.667M28.4706 128.333H52.7059M28.4706 128.333V152.667M52.7059 128.333H76.9412M52.7059 128.333V152.667M76.9412 128.333H101.176M76.9412 128.333V152.667M101.176 128.333H125.412M101.176 128.333V152.667M125.412 128.333H149.647M125.412 128.333V152.667M149.647 128.333H173.882M149.647 128.333V152.667M173.882 128.333H198.118M173.882 128.333V152.667M198.118 128.333H222.353M198.118 128.333V152.667M222.353 128.333H246.588M222.353 128.333V152.667M246.588 128.333H270.824M246.588 128.333V152.667M270.824 128.333H295.059M270.824 128.333V152.667M295.059 128.333H319.294M295.059 128.333V152.667M319.294 128.333H343.529M319.294 128.333V152.667M343.529 128.333H367.765M343.529 128.333V152.667M367.765 128.333H392M367.765 128.333V152.667M392 128.333V152.667M4.2353 152.667H-20M4.2353 152.667H28.4706M4.2353 152.667V177M-20 152.667V177M28.4706 152.667H52.7059M28.4706 152.667V177M52.7059 152.667H76.9412M52.7059 152.667V177M76.9412 152.667H101.176M76.9412 152.667V177M101.176 152.667H125.412M101.176 152.667V177M125.412 152.667H149.647M125.412 152.667V177M149.647 152.667H173.882M149.647 152.667V177M173.882 152.667H198.118M173.882 152.667V177M198.118 152.667H222.353M198.118 152.667V177M222.353 152.667H246.588M222.353 152.667V177M246.588 152.667H270.824M246.588 152.667V177M270.824 152.667H295.059M270.824 152.667V177M295.059 152.667H319.294M295.059 152.667V177M319.294 152.667H343.529M319.294 152.667V177M343.529 152.667H367.765M343.529 152.667V177M367.765 152.667H392M367.765 152.667V177M392 152.667V177M4.2353 177H-20M4.2353 177H28.4706M4.2353 177V201.333M-20 177V201.333M28.4706 177H52.7059M28.4706 177V201.333M52.7059 177H76.9412M52.7059 177V201.333M76.9412 177H101.176M76.9412 177V201.333M101.176 177H125.412M101.176 177V201.333M125.412 177H149.647M125.412 177V201.333M149.647 177H173.882M149.647 177V201.333M173.882 177H198.118M173.882 177V201.333M198.118 177H222.353M198.118 177V201.333M222.353 177H246.588M222.353 177V201.333M246.588 177H270.824M246.588 177V201.333M270.824 177H295.059M270.824 177V201.333M295.059 177H319.294M295.059 177V201.333M319.294 177H343.529M319.294 177V201.333M343.529 177H367.765M343.529 177V201.333M367.765 177H392M367.765 177V201.333M392 177V201.333M4.2353 201.333H-20M4.2353 201.333H28.4706M4.2353 201.333V225.667M-20 201.333V225.667M28.4706 201.333H52.7059M28.4706 201.333V225.667M52.7059 201.333H76.9412M52.7059 201.333V225.667M76.9412 201.333H101.176M76.9412 201.333V225.667M101.176 201.333H125.412M101.176 201.333V225.667M125.412 201.333H149.647M125.412 201.333V225.667M149.647 201.333H173.882M149.647 201.333V225.667M173.882 201.333H198.118M173.882 201.333V225.667M198.118 201.333H222.353M198.118 201.333V225.667M222.353 201.333H246.588M222.353 201.333V225.667M246.588 201.333H270.824M246.588 201.333V225.667M270.824 201.333H295.059M270.824 201.333V225.667M295.059 201.333H319.294M295.059 201.333V225.667M319.294 201.333H343.529M319.294 201.333V225.667M343.529 201.333H367.765M343.529 201.333V225.667M367.765 201.333H392M367.765 201.333V225.667M392 201.333V225.667M4.2353 225.667H-20M4.2353 225.667H28.4706M4.2353 225.667V250M-20 225.667V250H4.2353M28.4706 225.667H52.7059M28.4706 225.667V250M52.7059 225.667H76.9412M52.7059 225.667V250M76.9412 225.667H101.176M76.9412 225.667V250M101.176 225.667H125.412M101.176 225.667V250M125.412 225.667H149.647M125.412 225.667V250M149.647 225.667H173.882M149.647 225.667V250M173.882 225.667H198.118M173.882 225.667V250M198.118 225.667H222.353M198.118 225.667V250M222.353 225.667H246.588M222.353 225.667V250M246.588 225.667H270.824M246.588 225.667V250M270.824 225.667H295.059M270.824 225.667V250M295.059 225.667H319.294M295.059 225.667V250M319.294 225.667H343.529M319.294 225.667V250M343.529 225.667H367.765M343.529 225.667V250M367.765 225.667H392M367.765 225.667V250M392 225.667V250H367.765M4.2353 250H28.4706M28.4706 250H52.7059M52.7059 250H76.9412M76.9412 250H101.176M101.176 250H125.412M125.412 250H149.647M149.647 250H173.882M173.882 250H198.118M198.118 250H222.353M222.353 250H246.588M246.588 250H270.824M270.824 250H295.059M295.059 250H319.294M319.294 250H343.529M343.529 250H367.765" stroke="url(#paint0_radial_2_995)" stroke-opacity="0.08"/>
<defs>
<radialGradient id="paint0_radial_2_995" cx="0" cy="0" r="1" gradientUnits="userSpaceOnUse" gradientTransform="translate(186 111.799) rotate(90) scale(137.889 206.311)">
<stop stop-color="white"/>
<stop offset="1" stop-color="white" stop-opacity="0"/>
</radialGradient>
</defs>
</svg>
