<svg width="10" height="11" viewBox="0 0 10 11" fill="none" xmlns="http://www.w3.org/2000/svg">
<path id="Vector" fill-rule="evenodd" clip-rule="evenodd" d="M1.06256 1.9376V7.49997C1.06256 7.7441 0.864633 7.94163 0.620573 7.94163C0.376514 7.94163 0.178589 7.7441 0.178589 7.49997V0.870537C0.178589 0.753069 0.225183 0.640851 0.308067 0.558164C0.390951 0.47482 0.503367 0.428223 0.620573 0.428223H7.25001C7.49413 0.428223 7.69199 0.626412 7.69199 0.870537C7.69199 1.11466 7.49413 1.31219 7.25001 1.31219H1.68757L9.77237 9.39719C9.94497 9.56978 9.94497 9.84935 9.77237 10.0219C9.59978 10.1945 9.31995 10.1945 9.14736 10.0219L1.06256 1.9376Z" fill="white"/>
</svg>
