<svg width="164" height="10" viewBox="0 0 164 10" fill="none" xmlns="http://www.w3.org/2000/svg">
<path id="Vector" d="M3.40147 5.99838V8.34644H2.57066V5.99838H0.381409V5.16756H2.57066V2.87593H3.40147V5.16756H5.59072V5.99838H3.40147ZM11.8507 9.20219H11.1636V8.51509C9.77957 8.41271 8.86673 7.618 8.86148 6.47481H9.73822C9.79466 7.16191 10.3177 7.618 11.1636 7.72037V5.05469L10.7534 4.94181C9.65619 4.65503 9.04063 3.98303 9.04063 3.0295C9.04063 1.90666 9.85635 1.14278 11.1636 1.01481V0.296875H11.8507V1.00956C13.1323 1.11719 13.973 1.9119 14.0091 3.019H13.1376C13.1166 2.38375 12.6093 1.89681 11.8507 1.80428V4.31116L12.2864 4.41878C13.5373 4.75216 14.1371 5.37231 14.1371 6.40787C14.1371 7.62325 13.2912 8.39238 11.8507 8.5105V9.20219ZM13.2505 6.48006C13.2505 5.80347 12.8193 5.3979 11.8507 5.19315V7.73612C12.7425 7.69019 13.2505 7.22819 13.2505 6.48006ZM9.92264 2.97831C9.92264 3.58862 10.3531 3.99354 11.1636 4.16285V1.80428C10.4457 1.84497 9.92264 2.33256 9.92264 2.97831ZM17.8232 8.62338C16.4084 8.62338 15.3623 7.74137 15.2855 6.48006H16.1931C16.2751 7.26953 16.9465 7.81291 17.8337 7.81291C18.8384 7.81291 19.536 7.11597 19.536 6.12109C19.536 5.12622 18.8332 4.41353 17.8488 4.41353C17.1571 4.41353 16.5672 4.72656 16.2646 5.24434H15.3984L15.8033 1.1021H20.0381V1.92241H16.5619L16.3368 4.3315H16.3572C16.6905 3.8859 17.3054 3.61881 18.0129 3.61881C19.433 3.61881 20.4587 4.65962 20.4587 6.0955C20.4587 7.58256 19.3667 8.62338 17.8232 8.62338ZM24.0117 8.62338C22.2838 8.62338 21.2843 7.13631 21.2843 4.79809C21.2843 2.48087 22.2943 0.97872 24.0117 0.97872C25.7291 0.97872 26.7292 2.47038 26.7292 4.7935C26.7292 7.13107 25.7343 8.62338 24.0117 8.62338ZM24.0117 7.81815C25.1654 7.81815 25.8013 6.64412 25.8013 4.79809C25.8013 2.97831 25.1549 1.78853 24.0117 1.78853C22.8685 1.78853 22.2122 2.98882 22.2122 4.7935C22.2122 6.63888 22.8527 7.81815 24.0117 7.81815ZM28.3186 8.55119C27.9905 8.55119 27.7339 8.29525 27.7339 7.96713C27.7339 7.639 27.9905 7.3824 28.3186 7.3824C28.6468 7.3824 28.9027 7.639 28.9027 7.96713C28.9027 8.29525 28.6468 8.55119 28.3186 8.55119ZM32.8402 8.62338C31.1123 8.62338 30.1128 7.13631 30.1128 4.79809C30.1128 2.48087 31.1228 0.97872 32.8402 0.97872C34.5576 0.97872 35.5577 2.47038 35.5577 4.7935C35.5577 7.13107 34.5629 8.62338 32.8402 8.62338ZM32.8402 7.81815C33.9939 7.81815 34.6298 6.64412 34.6298 4.79809C34.6298 2.97831 33.9834 1.78853 32.8402 1.78853C31.697 1.78853 31.0408 2.98882 31.0408 4.7935C31.0408 6.63888 31.6813 7.81815 32.8402 7.81815ZM39.2078 8.62338C37.4799 8.62338 36.4804 7.13631 36.4804 4.79809C36.4804 2.48087 37.4904 0.97872 39.2078 0.97872C40.9252 0.97872 41.9253 2.47038 41.9253 4.7935C41.9253 7.13107 40.9305 8.62338 39.2078 8.62338ZM39.2078 7.81815C40.3615 7.81815 40.9974 6.64412 40.9974 4.79809C40.9974 2.97831 40.351 1.78853 39.2078 1.78853C38.0646 1.78853 37.4084 2.98882 37.4084 4.7935C37.4084 6.63888 38.0495 7.81815 39.2078 7.81815ZM46.1805 1.92241V4.7574H47.9497C48.898 4.7574 49.4361 4.24487 49.4361 3.33728C49.4361 2.45003 48.8619 1.92241 47.9084 1.92241H46.1805ZM46.1805 5.57247V8.5H45.2578V1.1021H48.0317C49.4565 1.1021 50.3896 1.97359 50.3896 3.30644C50.3896 4.33675 49.8312 5.13672 48.9032 5.42875L50.6154 8.5H49.5339L47.9497 5.57247H46.1805ZM53.5534 3.84981C52.7174 3.84981 52.1333 4.49097 52.0769 5.37756H54.9735C54.9525 4.48572 54.3941 3.84981 53.5534 3.84981ZM54.9525 6.97225H55.8293C55.6757 7.90544 54.7734 8.59254 53.6099 8.59254C52.0815 8.59254 51.1535 7.53071 51.1535 5.85465C51.1535 4.19828 52.0972 3.07543 53.5685 3.07543C55.009 3.07543 55.8962 4.1215 55.8962 5.73653V6.07515H52.0716V6.12634C52.0716 7.14681 52.6714 7.81815 53.6302 7.81815C54.3068 7.81815 54.8042 7.47494 54.9525 6.97225ZM61.2283 4.91622H60.3568C60.2281 4.33675 59.7773 3.86031 58.9931 3.86031C58.0697 3.86031 57.4443 4.62419 57.4443 5.83431C57.4443 7.07463 58.0802 7.80766 59.0029 7.80766C59.7314 7.80766 60.2078 7.42309 60.362 6.78259H61.2388C61.1003 7.84375 60.2078 8.59254 58.9983 8.59254C57.5218 8.59254 56.5374 7.55172 56.5374 5.83431C56.5374 4.15235 57.5165 3.07543 58.9878 3.07543C60.3207 3.07543 61.1154 3.95744 61.2283 4.91622ZM64.1965 3.84981C63.3611 3.84981 62.7764 4.49097 62.7199 5.37756H65.6166C65.5963 4.48572 65.0378 3.84981 64.1965 3.84981ZM65.5963 6.97225H66.473C66.3195 7.90544 65.4171 8.59254 64.2529 8.59254C62.7252 8.59254 61.7972 7.53071 61.7972 5.85465C61.7972 4.19828 62.7409 3.07543 64.2122 3.07543C65.6527 3.07543 66.5399 4.1215 66.5399 5.73653V6.07515H62.7153V6.12634C62.7153 7.14681 63.3151 7.81815 64.2739 7.81815C64.9505 7.81815 65.448 7.47494 65.5963 6.97225ZM67.4882 8.5V3.16797H68.3801V8.5H67.4882ZM67.9345 2.27087C67.632 2.27087 67.3806 2.01953 67.3806 1.717C67.3806 1.40922 67.632 1.16313 67.9345 1.16313C68.2416 1.16313 68.493 1.40922 68.493 1.717C68.493 2.01953 68.2416 2.27087 67.9345 2.27087ZM73.9582 3.16797L72 8.5H71.0871L69.1236 3.16797H70.062L71.5334 7.55171H71.5537L73.0303 3.16797H73.9582ZM76.6449 3.84981C75.8095 3.84981 75.2248 4.49097 75.1683 5.37756H78.065C78.0447 4.48572 77.4855 3.84981 76.6449 3.84981ZM78.0447 6.97225H78.9214C78.7672 7.90544 77.8655 8.59254 76.7013 8.59254C75.1736 8.59254 74.2456 7.53071 74.2456 5.85465C74.2456 4.19828 75.1887 3.07543 76.6606 3.07543C78.1011 3.07543 78.9877 4.1215 78.9877 5.73653V6.07515H75.1631V6.12634C75.1631 7.14681 75.7629 7.81815 76.7217 7.81815C77.3989 7.81815 77.8957 7.47494 78.0447 6.97225ZM81.9106 8.59254C80.5516 8.59254 79.6289 7.50513 79.6289 5.83431C79.6289 4.16285 80.5463 3.07543 81.8896 3.07543C82.6535 3.07543 83.2691 3.45016 83.5867 4.03422H83.6077V1.1021H84.4995V8.5H83.6484V7.59766H83.6333C83.2894 8.21256 82.6791 8.59254 81.9106 8.59254ZM82.0793 3.86031C81.1363 3.86031 80.5417 4.62944 80.5417 5.83431C80.5417 7.04378 81.1363 7.80766 82.0793 7.80766C82.9974 7.80766 83.6123 7.02869 83.6123 5.83431C83.6123 4.64453 82.9974 3.86031 82.0793 3.86031ZM88.145 8.5V3.901H87.4015V3.16797H88.145V2.5734C88.145 1.54768 88.6215 1.06075 89.6058 1.06075C89.806 1.06075 90.0212 1.0811 90.1492 1.1021V1.82463C90.0416 1.80953 89.8933 1.79378 89.7443 1.79378C89.2626 1.79378 89.0316 2.05038 89.0316 2.57866V3.16797H90.1236V3.901H89.0369V8.5H88.145ZM91.0463 8.5V3.16797H91.8876V4.03947H91.908C92.0825 3.45016 92.5747 3.07543 93.2001 3.07543C93.3537 3.07543 93.4869 3.10103 93.5591 3.11153V3.97778C93.4869 3.95218 93.2972 3.9266 93.082 3.9266C92.3896 3.9266 91.9388 4.42403 91.9388 5.17806V8.5H91.0463ZM96.2405 8.59254C94.7639 8.59254 93.7691 7.53072 93.7691 5.83431C93.7691 4.132 94.7639 3.07543 96.2405 3.07543C97.7118 3.07543 98.7061 4.132 98.7061 5.83431C98.7061 7.53072 97.7118 8.59254 96.2405 8.59254ZM96.2405 7.80766C97.1835 7.80766 97.7985 7.09038 97.7985 5.83431C97.7985 4.5776 97.1835 3.86031 96.2405 3.86031C95.2968 3.86031 94.6767 4.5776 94.6767 5.83431C94.6767 7.09038 95.2968 7.80766 96.2405 7.80766ZM99.6084 8.5V3.16797H100.45V4.01912H100.47C100.721 3.45475 101.265 3.07543 101.983 3.07543C102.71 3.07543 103.249 3.44491 103.48 4.09066H103.5C103.797 3.45475 104.423 3.07543 105.171 3.07543C106.227 3.07543 106.909 3.76254 106.909 4.8191V8.5H106.017V5.02385C106.017 4.29606 105.612 3.86556 104.91 3.86556C104.202 3.86556 103.705 4.38794 103.705 5.11112V8.5H102.813V4.92671C102.813 4.28556 102.382 3.86556 101.721 3.86556C101.013 3.86556 100.501 4.41878 100.501 5.15707V8.5H99.6084ZM117.63 8.5H116.769V2.7985H116.733L114.374 8.44881H113.595L111.236 2.7985H111.2V8.5H110.339V1.1021H111.411L113.964 7.27478H114.005L116.558 1.1021H117.63V8.5ZM118.973 8.5V3.16797H119.866V8.5H118.973ZM119.419 2.27087C119.117 2.27087 118.865 2.01953 118.865 1.717C118.865 1.40922 119.117 1.16313 119.419 1.16313C119.727 1.16313 119.978 1.40922 119.978 1.717C119.978 2.01953 119.727 2.27087 119.419 2.27087ZM121.116 8.5V1.1021H122.008V8.5H121.116ZM125.351 3.84981C124.515 3.84981 123.931 4.49097 123.875 5.37756H126.771C126.751 4.48572 126.192 3.84981 125.351 3.84981ZM126.751 6.97225H127.628C127.473 7.90544 126.571 8.59254 125.408 8.59254C123.88 8.59254 122.952 7.53071 122.952 5.85465C122.952 4.19828 123.895 3.07543 125.366 3.07543C126.807 3.07543 127.694 4.1215 127.694 5.73653V6.07515H123.869V6.12634C123.869 7.14681 124.469 7.81815 125.428 7.81815C126.104 7.81815 126.602 7.47494 126.751 6.97225ZM128.504 4.63928C128.504 3.7271 129.319 3.07543 130.493 3.07543C131.595 3.07543 132.406 3.73168 132.447 4.63403H131.595C131.534 4.1215 131.119 3.80387 130.463 3.80387C129.812 3.80387 129.381 4.12675 129.381 4.59334C129.381 4.96215 129.663 5.20825 130.268 5.36246L131.093 5.56196C132.17 5.83431 132.559 6.22347 132.559 7.00835C132.559 7.93628 131.683 8.59254 130.437 8.59254C129.268 8.59254 128.453 7.95662 128.361 7.01293H129.253C129.35 7.56681 129.77 7.8641 130.493 7.8641C131.216 7.8641 131.662 7.55631 131.662 7.07463C131.662 6.69531 131.442 6.49057 130.842 6.3311L129.904 6.09025C128.966 5.84941 128.504 5.36772 128.504 4.63928ZM140.363 7.66918V8.5H135.78V1.1021H140.363V1.93225H136.702V4.3059H140.173V5.12621H136.702V7.66918H140.363ZM141.352 4.63928C141.352 3.7271 142.168 3.07543 143.342 3.07543C144.444 3.07543 145.254 3.73168 145.295 4.63403H144.444C144.382 4.1215 143.967 3.80387 143.311 3.80387C142.66 3.80387 142.229 4.12675 142.229 4.59334C142.229 4.96215 142.511 5.20825 143.116 5.36246L143.941 5.56196C145.018 5.83431 145.407 6.22347 145.407 7.00835C145.407 7.93628 144.531 8.59254 143.285 8.59254C142.116 8.59254 141.301 7.95662 141.209 7.01293H142.101C142.198 7.56681 142.618 7.8641 143.342 7.8641C144.064 7.8641 144.51 7.55631 144.51 7.07463C144.51 6.69531 144.29 6.49057 143.69 6.3311L142.752 6.09025C141.814 5.84941 141.352 5.36772 141.352 4.63928ZM146.623 1.88106H147.515V3.16797H148.55V3.901H147.515V7.06938C147.515 7.55632 147.72 7.77681 148.176 7.77681C148.279 7.77681 148.484 7.76171 148.546 7.75121V8.5C148.438 8.52559 148.192 8.54068 147.981 8.54068C147.002 8.54068 146.623 8.14103 146.623 7.11597V3.901H145.828V3.16797H146.623V1.88106ZM149.55 8.5V1.1021H150.442V4.01912H150.463C150.76 3.42456 151.345 3.07543 152.155 3.07543C153.324 3.07543 154.031 3.86556 154.031 5.05469V8.5H153.139V5.21875C153.139 4.37284 152.713 3.86556 151.878 3.86556C150.991 3.86556 150.442 4.46997 150.442 5.39332V8.5H149.55ZM157.302 3.84981C156.467 3.84981 155.882 4.49097 155.825 5.37756H158.722C158.702 4.48572 158.143 3.84981 157.302 3.84981ZM158.702 6.97225H159.579C159.425 7.90544 158.523 8.59254 157.358 8.59254C155.831 8.59254 154.903 7.53071 154.903 5.85465C154.903 4.19828 155.846 3.07543 157.318 3.07543C158.758 3.07543 159.645 4.1215 159.645 5.73653V6.07515H155.821V6.12634C155.821 7.14681 156.421 7.81815 157.379 7.81815C158.056 7.81815 158.553 7.47494 158.702 6.97225ZM160.548 8.5V3.16797H161.388V4.03947H161.409C161.583 3.45016 162.076 3.07543 162.701 3.07543C162.854 3.07543 162.988 3.10103 163.06 3.11153V3.97778C162.988 3.95218 162.798 3.9266 162.583 3.9266C161.891 3.9266 161.44 4.42403 161.44 5.17806V8.5H160.548Z" fill="white"/>
</svg>
