<svg width="172" height="11" viewBox="0 0 172 11" fill="none" xmlns="http://www.w3.org/2000/svg">
<path id="Vector" d="M3.40147 5.74805V8.09617H2.57066V5.74805H0.381409V4.9175H2.57066V2.62574H3.40147V4.9175H5.59072V5.74805H3.40147ZM11.8507 8.95239H11.1636V8.26536C9.77957 8.16285 8.86673 7.36813 8.86148 6.22488H9.73822C9.79466 6.91184 10.3177 7.36813 11.1636 7.4707V4.80469L10.7534 4.69188C9.65619 4.40477 9.04063 3.73316 9.04063 2.77957C9.04063 1.65672 9.85635 0.892847 11.1636 0.764681V0.046875H11.8507V0.759497C13.1323 0.867187 13.973 1.66184 14.0091 2.76926H13.1376C13.1166 2.13355 12.6093 1.64648 11.8507 1.55422V4.06129L12.2864 4.16891C13.5373 4.50222 14.1371 5.12258 14.1371 6.1582C14.1371 7.37332 13.2912 8.14231 11.8507 8.26024V8.95239ZM13.2505 6.23C13.2505 5.55321 12.8193 5.14817 11.8507 4.94309V7.48606C12.7425 7.43993 13.2505 6.97852 13.2505 6.23ZM9.92264 2.72825C9.92264 3.33836 10.3531 3.7434 11.1636 3.91258V1.55422C10.4457 1.59523 9.92264 2.0823 9.92264 2.72825ZM15.2343 2.98464C15.2343 1.69262 16.2804 0.728785 17.6749 0.728785C18.9973 0.728785 20.0381 1.62594 20.0381 2.75902C20.0381 3.58446 19.664 4.19969 18.4283 5.47629L16.5573 7.40921V7.42969H20.1614V8.25H15.2803V7.61423L17.8849 4.87136C18.8798 3.82543 19.1154 3.43063 19.1154 2.81546C19.1154 2.10277 18.4644 1.53368 17.6493 1.53368C16.7824 1.53368 16.1262 2.15921 16.1262 2.98464V2.98976H15.2343V2.98464ZM21.1813 2.98464C21.1813 1.69262 22.2273 0.728785 23.6219 0.728785C24.9449 0.728785 25.9857 1.62594 25.9857 2.75902C25.9857 3.58446 25.6109 4.19969 24.3759 5.47629L22.5043 7.40921V7.42969H26.1084V8.25H21.2278V7.61423L23.8325 4.87136C24.8267 3.82543 25.063 3.43063 25.063 2.81546C25.063 2.10277 24.4113 1.53368 23.5963 1.53368C22.73 1.53368 22.0738 2.15921 22.0738 2.98464V2.98976H21.1813V2.98464ZM27.9078 8.30125C27.5797 8.30125 27.3238 8.04492 27.3238 7.7168C27.3238 7.38867 27.5797 7.13234 27.9078 7.13234C28.2359 7.13234 28.4925 7.38867 28.4925 7.7168C28.4925 8.04492 28.2359 8.30125 27.9078 8.30125ZM31.1123 8.25V1.83109H31.0919L29.1337 3.24097V2.26684L31.1024 0.851832H32.0048V8.25H31.1123ZM36.424 8.37305C35.0091 8.37305 33.963 7.49125 33.8863 6.23H34.7938C34.8759 7.01953 35.5472 7.56297 36.4345 7.56297C37.4392 7.56297 38.1361 6.86571 38.1361 5.87109C38.1361 4.87648 37.434 4.16379 36.4496 4.16379C35.7572 4.16379 35.1679 4.47656 34.8654 4.99441H33.9991L34.404 0.851832H38.6388V1.67214H35.1627L34.9369 4.08176H34.9579C35.2906 3.63577 35.9062 3.36914 36.6136 3.36914C38.0338 3.36914 39.0595 4.40989 39.0595 5.84543C39.0595 7.3323 37.9675 8.37305 36.424 8.37305ZM43.2175 1.67214V4.50734H44.9861C45.9344 4.50734 46.4731 3.99461 46.4731 3.08715C46.4731 2.20016 45.8989 1.67214 44.9447 1.67214H43.2175ZM43.2175 5.32254V8.25H42.2941V0.851832H45.0681C46.4935 0.851832 47.4267 1.7234 47.4267 3.05637C47.4267 4.08688 46.8675 4.88672 45.9396 5.17895L47.6518 8.25H46.5703L44.9861 5.32254H43.2175ZM50.5898 3.59988C49.7544 3.59988 49.1697 4.24071 49.1132 5.12769H52.0099C51.9896 4.23559 51.4305 3.59988 50.5898 3.59988ZM51.9896 6.72219H52.8663C52.7121 7.65531 51.8098 8.34227 50.6462 8.34227C49.1185 8.34227 48.1905 7.28098 48.1905 5.60453C48.1905 3.94848 49.1336 2.8257 50.6049 2.8257C52.046 2.8257 52.9326 3.87157 52.9326 5.4866V5.82496H49.108V5.87621C49.108 6.89649 49.7078 7.56809 50.6666 7.56809C51.3432 7.56809 51.8406 7.22461 51.9896 6.72219ZM58.2646 4.66629H57.3931C57.2652 4.08688 56.8137 3.61012 56.0295 3.61012C55.1068 3.61012 54.4814 4.37406 54.4814 5.58398C54.4814 6.82469 55.1166 7.55785 56.0399 7.55785C56.7677 7.55785 57.2448 7.17336 57.3984 6.53246H58.2751C58.1367 7.59375 57.2448 8.34227 56.0347 8.34227C54.5581 8.34227 53.5738 7.30152 53.5738 5.58398C53.5738 3.90234 54.5529 2.8257 56.0242 2.8257C57.3577 2.8257 58.1518 3.7075 58.2646 4.66629ZM61.2335 3.59988C60.3974 3.59988 59.8134 4.24071 59.757 5.12769H62.6536C62.6333 4.23559 62.0742 3.59988 61.2335 3.59988ZM62.6333 6.72219H63.5094C63.3558 7.65531 62.4535 8.34227 61.2899 8.34227C59.7622 8.34227 58.8343 7.28098 58.8343 5.60453C58.8343 3.94848 59.7773 2.8257 61.2486 2.8257C62.6891 2.8257 63.5763 3.87157 63.5763 5.4866V5.82496H59.7517V5.87621C59.7517 6.89649 60.3515 7.56809 61.3103 7.56809C61.9869 7.56809 62.4843 7.22461 62.6333 6.72219ZM64.5246 8.25V2.91797H65.4171V8.25H64.5246ZM64.9709 2.02074C64.6683 2.02074 64.417 1.76953 64.417 1.46707C64.417 1.15942 64.6683 0.913321 64.9709 0.913321C65.2786 0.913321 65.53 1.15942 65.53 1.46707C65.53 1.76953 65.2786 2.02074 64.9709 2.02074ZM70.9952 2.91797L69.0363 8.25H68.1241L66.1606 2.91797H67.0984L68.5697 7.30152H68.5907L70.0673 2.91797H70.9952ZM73.6813 3.59988C72.8459 3.59988 72.2611 4.24071 72.2047 5.12769H75.1021C75.0811 4.23559 74.5226 3.59988 73.6813 3.59988ZM75.0811 6.72219H75.9578C75.8042 7.65531 74.9019 8.34227 73.7377 8.34227C72.21 8.34227 71.282 7.28098 71.282 5.60453C71.282 3.94848 72.2257 2.8257 73.697 2.8257C75.1375 2.8257 76.0247 3.87157 76.0247 5.4866V5.82496H72.2001V5.87621C72.2001 6.89649 72.7999 7.56809 73.7587 7.56809C74.4353 7.56809 74.9327 7.22461 75.0811 6.72219ZM78.947 8.34227C77.5886 8.34227 76.6652 7.25539 76.6652 5.58398C76.6652 3.91258 77.5833 2.8257 78.9267 2.8257C79.6905 2.8257 80.3055 3.19996 80.6237 3.78442H80.6441V0.851832H81.5359V8.25H80.6848V7.34766H80.6697C80.3265 7.96289 79.7161 8.34227 78.947 8.34227ZM79.1163 3.61012C78.1726 3.61012 77.5781 4.37918 77.5781 5.58398C77.5781 6.79391 78.1726 7.55785 79.1163 7.55785C80.0338 7.55785 80.6493 6.77856 80.6493 5.58398C80.6493 4.39453 80.0338 3.61012 79.1163 3.61012ZM85.1814 8.25V3.65113H84.4379V2.91797H85.1814V2.32327C85.1814 1.29782 85.6578 0.810816 86.6422 0.810816C86.8424 0.810816 87.0576 0.831291 87.1862 0.851832V1.57469C87.0786 1.55933 86.9296 1.54391 86.7807 1.54391C86.299 1.54391 86.0686 1.80031 86.0686 2.32839V2.91797H87.1607V3.65113H86.0732V8.25H85.1814ZM88.0833 8.25V2.91797H88.924V3.78953H88.9443C89.1189 3.19996 89.6111 2.8257 90.2365 2.8257C90.39 2.8257 90.5239 2.85129 90.5955 2.8616V3.72805C90.5239 3.70239 90.3343 3.67673 90.1184 3.67673C89.4267 3.67673 88.9752 4.1741 88.9752 4.92773V8.25H88.0833ZM93.2769 8.34227C91.8003 8.34227 90.8055 7.28098 90.8055 5.58398C90.8055 3.88187 91.8003 2.8257 93.2769 2.8257C94.7482 2.8257 95.7431 3.88187 95.7431 5.58398C95.7431 7.28098 94.7482 8.34227 93.2769 8.34227ZM93.2769 7.55785C94.2199 7.55785 94.8355 6.84011 94.8355 5.58398C94.8355 4.32786 94.2199 3.61012 93.2769 3.61012C92.3332 3.61012 91.7131 4.32786 91.7131 5.58398C91.7131 6.84011 92.3332 7.55785 93.2769 7.55785ZM96.6454 8.25V2.91797H97.4861V3.76906H97.5064C97.7578 3.20508 98.3011 2.8257 99.0191 2.8257C99.7469 2.8257 100.286 3.19484 100.516 3.84079H100.536C100.834 3.20508 101.46 2.8257 102.208 2.8257C103.264 2.8257 103.946 3.51266 103.946 4.56883V8.25H103.054V4.77391C103.054 4.04593 102.649 3.61523 101.947 3.61523C101.239 3.61523 100.742 4.1382 100.742 4.86106V8.25H99.8499V4.67652C99.8499 4.03563 99.4187 3.61523 98.7572 3.61523C98.0498 3.61523 97.5373 4.16891 97.5373 4.90719V8.25H96.6454ZM108.289 8.25H107.376V0.851832H108.273L112.323 6.66063H112.37V0.851832H113.282V8.25H112.385L108.335 2.46168H108.289V8.25ZM116.748 7.5066C117.676 7.5066 118.296 6.73754 118.296 5.56344C118.296 4.38941 117.676 3.61012 116.748 3.61012C115.83 3.61012 115.23 4.36887 115.23 5.56344C115.23 6.75808 115.83 7.5066 116.748 7.5066ZM116.779 10.2598C115.604 10.2598 114.677 9.5984 114.528 8.69094H115.446C115.62 9.17801 116.148 9.50095 116.815 9.50095C117.737 9.50095 118.296 8.96781 118.296 8.17309V7.3323H118.276C117.948 7.91164 117.317 8.29102 116.569 8.29102C115.21 8.29102 114.318 7.21949 114.318 5.56344C114.318 3.89211 115.21 2.8257 116.589 2.8257C117.343 2.8257 117.968 3.19484 118.322 3.81519H118.337V2.91797H119.188V8.14231C119.188 9.41379 118.25 10.2598 116.779 10.2598ZM124.731 2.91797V8.25H123.884V7.38355H123.864C123.546 7.99879 122.993 8.34227 122.172 8.34227C121.009 8.34227 120.327 7.58863 120.327 6.37864V2.91797H121.219V6.21969C121.219 7.08621 121.624 7.55273 122.449 7.55273C123.315 7.55273 123.838 6.95798 123.838 6.05051V2.91797H124.731ZM126.33 10.2444C126.223 10.2444 126.043 10.2341 125.946 10.2136V9.46511C126.043 9.48559 126.181 9.49071 126.294 9.49071C126.792 9.49071 127.069 9.24973 127.274 8.62938L127.397 8.25512L125.428 2.91797H126.381L127.858 7.35789H127.874L129.35 2.91797H130.288L128.191 8.62426C127.735 9.87015 127.294 10.2444 126.33 10.2444ZM132.98 3.59988C132.144 3.59988 131.56 4.24071 131.503 5.12769H134.4C134.38 4.23559 133.821 3.59988 132.98 3.59988ZM134.38 6.72219H135.257C135.102 7.65531 134.2 8.34227 133.036 8.34227C131.509 8.34227 130.581 7.28098 130.581 5.60453C130.581 3.94848 131.524 2.8257 132.995 2.8257C134.436 2.8257 135.323 3.87157 135.323 5.4866V5.82496H131.498V5.87621C131.498 6.89649 132.098 7.56809 133.057 7.56809C133.733 7.56809 134.231 7.22461 134.38 6.72219ZM136.225 8.25V2.91797H137.066V3.76906H137.087C137.384 3.19484 137.953 2.8257 138.779 2.8257C139.947 2.8257 140.624 3.57934 140.624 4.78933V8.25H139.732V4.94828C139.732 4.08688 139.327 3.61523 138.507 3.61523C137.666 3.61523 137.118 4.20999 137.118 5.11234V8.25H136.225ZM143.701 6.21458H144.628C144.716 7.01441 145.474 7.5425 146.53 7.5425C147.53 7.5425 148.258 7.01441 148.258 6.28637C148.258 5.6609 147.822 5.2764 146.828 5.02L145.879 4.77391C144.516 4.42531 143.911 3.82543 143.911 2.82058C143.911 1.59011 144.987 0.728785 146.525 0.728785C147.997 0.728785 149.063 1.60035 149.104 2.84106H148.181C148.099 2.0464 147.458 1.55934 146.495 1.55934C145.536 1.55934 144.869 2.05664 144.869 2.77957C144.869 3.33836 145.279 3.67161 146.284 3.93312L147.059 4.1382C148.592 4.5227 149.212 5.11234 149.212 6.17356C149.212 7.52708 148.145 8.37305 146.444 8.37305C144.875 8.37305 143.788 7.52196 143.701 6.21458ZM150.196 8.25V0.851832H151.089V3.76906H151.109C151.406 3.1743 151.991 2.8257 152.801 2.8257C153.97 2.8257 154.677 3.61523 154.677 4.80469V8.25H153.785V4.96875C153.785 4.12278 153.36 3.61523 152.524 3.61523C151.637 3.61523 151.089 4.22023 151.089 5.14305V8.25H150.196ZM157.569 7.58351C158.41 7.58351 159.055 6.99387 159.055 6.22488V5.78906L157.63 5.87621C156.913 5.92235 156.503 6.24023 156.503 6.74266C156.503 7.25027 156.928 7.58351 157.569 7.58351ZM157.369 8.34227C156.308 8.34227 155.595 7.70144 155.595 6.74266C155.595 5.83008 156.297 5.25586 157.528 5.18406L159.055 5.09692V4.65086C159.055 3.99973 158.625 3.61012 157.887 3.61012C157.2 3.61012 156.769 3.93312 156.656 4.45609H155.795C155.856 3.5332 156.646 2.8257 157.907 2.8257C159.158 2.8257 159.948 3.50243 159.948 4.56371V8.25H159.102V7.3323H159.081C158.763 7.94235 158.087 8.34227 157.369 8.34227ZM161.081 8.25V2.91797H161.921V3.76906H161.942C162.24 3.19484 162.809 2.8257 163.634 2.8257C164.803 2.8257 165.48 3.57934 165.48 4.78933V8.25H164.588V4.94828C164.588 4.08688 164.183 3.61523 163.362 3.61523C162.522 3.61523 161.973 4.20999 161.973 5.11234V8.25H161.081ZM168.756 3.59988C167.92 3.59988 167.335 4.24071 167.28 5.12769H170.176C170.155 4.23559 169.597 3.59988 168.756 3.59988ZM170.155 6.72219H171.032C170.878 7.65531 169.976 8.34227 168.812 8.34227C167.284 8.34227 166.356 7.28098 166.356 5.60453C166.356 3.94848 167.3 2.8257 168.771 2.8257C170.212 2.8257 171.099 3.87157 171.099 5.4866V5.82496H167.274V5.87621C167.274 6.89649 167.874 7.56809 168.833 7.56809C169.51 7.56809 170.007 7.22461 170.155 6.72219Z" fill="white"/>
</svg>
