<svg width="223" height="14" viewBox="0 0 223 14" fill="none" xmlns="http://www.w3.org/2000/svg">
<path id="Vector" d="M4.61105 7.90356V10.839H3.57286V7.90356H0.836365V6.86538H3.57286V4.00085H4.61105V6.86538H7.34761V7.90356H4.61105ZM15.1728 11.9093H14.3138V11.0503C12.5832 10.9223 11.4427 9.92875 11.4361 8.50009H12.532C12.6029 9.35847 13.2566 9.92875 14.3138 10.0574V6.72494L13.8012 6.58384C12.4297 6.22487 11.6606 5.38488 11.6606 4.19313C11.6606 2.78941 12.6797 1.83456 14.3138 1.67444V0.777344H15.1728V1.66788C16.7747 1.80306 17.826 2.79597 17.8706 4.18065H16.7813C16.7557 3.38594 16.1211 2.77694 15.1728 2.66144V5.79503L15.7175 5.93022C17.2813 6.34628 18.0308 7.12197 18.0308 8.41675C18.0308 9.93531 16.9735 10.8967 15.1728 11.0444V11.9093ZM16.9224 8.506C16.9224 7.66009 16.3836 7.15412 15.1728 6.89753V10.0764C16.2878 10.0187 16.9224 9.44181 16.9224 8.506ZM12.7631 4.12881C12.7631 4.89203 13.3012 5.398 14.3138 5.60931V2.66144C13.4167 2.71263 12.7631 3.32163 12.7631 4.12881ZM21.3442 6.763V5.78913H22.4526C23.517 5.78913 24.2599 5.10334 24.2599 4.16753C24.2599 3.25141 23.6384 2.62928 22.4657 2.62928C21.4019 2.62928 20.6971 3.23828 20.5941 4.20625H19.4857C19.6136 2.63584 20.7805 1.62981 22.5169 1.62981C24.1706 1.62981 25.4201 2.62337 25.4201 4.01397C25.4201 5.17356 24.6766 6.007 23.5229 6.21175V6.23734C24.9201 6.32069 25.8172 7.18628 25.8172 8.48697C25.8172 10.0764 24.3688 11.1848 22.5556 11.1848C20.6197 11.1848 19.3833 10.1151 19.3 8.58344H20.4084C20.5107 9.53172 21.2996 10.1853 22.5425 10.1853C23.7664 10.1853 24.6445 9.493 24.6445 8.52569C24.6445 7.43566 23.8241 6.763 22.5044 6.763H21.3442ZM30.4634 11.1848C28.3037 11.1848 27.0542 9.32631 27.0542 6.40403C27.0542 3.50734 28.3168 1.62981 30.4634 1.62981C32.6107 1.62981 33.8602 3.49488 33.8602 6.39747C33.8602 9.32041 32.6172 11.1848 30.4634 11.1848ZM30.4634 10.1788C31.9059 10.1788 32.7006 8.7114 32.7006 6.40403C32.7006 4.12881 31.8927 2.64241 30.4634 2.64241C29.0348 2.64241 28.2145 4.14194 28.2145 6.39747C28.2145 8.70485 29.0151 10.1788 30.4634 10.1788ZM38.4231 11.1848C36.2634 11.1848 35.0139 9.32631 35.0139 6.40403C35.0139 3.50734 36.2765 1.62981 38.4231 1.62981C40.5703 1.62981 41.8198 3.49488 41.8198 6.39747C41.8198 9.32041 40.5769 11.1848 38.4231 11.1848ZM38.4231 10.1788C39.8655 10.1788 40.6602 8.7114 40.6602 6.40403C40.6602 4.12881 39.8524 2.64241 38.4231 2.64241C36.9944 2.64241 36.1741 4.14194 36.1741 6.39747C36.1741 8.70485 36.9747 10.1788 38.4231 10.1788ZM43.8063 11.0956C43.3968 11.0956 43.0759 10.7747 43.0759 10.3645C43.0759 9.95434 43.3968 9.6341 43.8063 9.6341C44.2171 9.6341 44.5374 9.95434 44.5374 10.3645C44.5374 10.7747 44.2171 11.0956 43.8063 11.0956ZM49.5295 11.1848C47.7609 11.1848 46.4536 10.083 46.3571 8.506H47.4918C47.5942 9.493 48.4335 10.1722 49.5426 10.1722C50.7986 10.1722 51.6701 9.30072 51.6701 8.05778C51.6701 6.81419 50.7921 5.92366 49.5616 5.92366C48.6967 5.92366 47.9597 6.31413 47.581 6.96185H46.4982L47.0049 1.78337H52.2982V2.80909H47.9531L47.671 5.82128H47.6965C48.1133 5.26347 48.8824 4.9301 49.767 4.9301C51.5422 4.9301 52.8238 6.23144 52.8238 8.02562C52.8238 9.88412 51.4588 11.1848 49.5295 11.1848ZM53.9709 4.44972C53.9709 2.83469 55.2782 1.62981 57.0212 1.62981C58.675 1.62981 59.9756 2.75134 59.9756 4.16753C59.9756 5.19916 59.5077 5.96828 57.9636 7.56428L55.624 9.97994V10.0062H60.1299V11.0312H54.0287V10.2365L57.2844 6.80763C58.5273 5.50038 58.8219 5.00688 58.8219 4.23775C58.8219 3.34722 58.0082 2.63584 56.989 2.63584C55.9062 2.63584 55.0859 3.41744 55.0859 4.44972V4.45563H53.9709V4.44972ZM65.4553 2.80909V6.35285H67.6662C68.8521 6.35285 69.5247 5.71234 69.5247 4.57769C69.5247 3.46928 68.8068 2.80909 67.615 2.80909H65.4553ZM65.4553 7.372V11.0312H64.3016V1.78337H67.7686C69.5503 1.78337 70.7165 2.87275 70.7165 4.53897C70.7165 5.82719 70.0182 6.82731 68.858 7.19219L70.9987 11.0312H69.6468L67.6662 7.372H65.4553ZM74.671 5.21884C73.6263 5.21884 72.8959 6.01947 72.825 7.12853H76.4462C76.4206 6.01356 75.7217 5.21884 74.671 5.21884ZM76.4206 9.12156H77.5165C77.3242 10.2877 76.1962 11.1468 74.7413 11.1468C72.8316 11.1468 71.6713 9.81981 71.6713 7.72441C71.6713 5.65459 72.8506 4.25087 74.6901 4.25087C76.4908 4.25087 77.5999 5.55813 77.5999 7.57675V8.00003H72.8184V8.06434C72.8184 9.33943 73.5685 10.1788 74.7669 10.1788C75.6128 10.1788 76.2349 9.74959 76.4206 9.12156ZM84.2648 6.55169H83.1754C83.0153 5.82719 82.4509 5.23131 81.4704 5.23131C80.3168 5.23131 79.5352 6.18615 79.5352 7.69881C79.5352 9.24953 80.3299 10.1663 81.4836 10.1663C82.3931 10.1663 82.9897 9.68528 83.1813 8.88465H84.2772C84.1046 10.2109 82.9897 11.1468 81.477 11.1468C79.631 11.1468 78.4005 9.8454 78.4005 7.69881C78.4005 5.59684 79.6251 4.25087 81.4639 4.25087C83.1301 4.25087 84.1237 5.35338 84.2648 6.55169ZM87.9752 5.21884C86.9304 5.21884 86.2 6.01947 86.1298 7.12853H89.7504C89.7248 6.01356 89.0265 5.21884 87.9752 5.21884ZM89.7248 9.12156H90.8207C90.6284 10.2877 89.5003 11.1468 88.0461 11.1468C86.1357 11.1468 84.9761 9.81981 84.9761 7.72441C84.9761 5.65459 86.1554 4.25087 87.9942 4.25087C89.7956 4.25087 90.904 5.55813 90.904 7.57675V8.00003H86.1233V8.06434C86.1233 9.33943 86.8734 10.1788 88.0717 10.1788C88.9176 10.1788 89.539 9.74959 89.7248 9.12156ZM92.0899 11.0312V4.36638H93.2048V11.0312H92.0899ZM92.647 3.24485C92.269 3.24485 91.9554 2.9305 91.9554 2.5525C91.9554 2.16794 92.269 1.86016 92.647 1.86016C93.0316 1.86016 93.3459 2.16794 93.3459 2.5525C93.3459 2.9305 93.0316 3.24485 92.647 3.24485ZM100.178 4.36638L97.729 11.0312H96.5885L94.1341 4.36638H95.3068L97.1463 9.84541H97.1719L99.0173 4.36638H100.178ZM103.536 5.21884C102.491 5.21884 101.76 6.01947 101.69 7.12853H105.311C105.285 6.01356 104.587 5.21884 103.536 5.21884ZM105.285 9.12156H106.381C106.189 10.2877 105.061 11.1468 103.606 11.1468C101.696 11.1468 100.536 9.81981 100.536 7.72441C100.536 5.65459 101.716 4.25087 103.555 4.25087C105.356 4.25087 106.464 5.55813 106.464 7.57675V8.00003H101.684V8.06434C101.684 9.33943 102.433 10.1788 103.632 10.1788C104.478 10.1788 105.099 9.74959 105.285 9.12156ZM110.117 11.1468C108.419 11.1468 107.266 9.78765 107.266 7.69881C107.266 5.60931 108.413 4.25087 110.091 4.25087C111.046 4.25087 111.815 4.71878 112.213 5.44919H112.239V1.78337H113.354V11.0312H112.29V9.90316H112.271C111.841 10.6723 111.078 11.1468 110.117 11.1468ZM110.329 5.23131C109.15 5.23131 108.406 6.19272 108.406 7.69881C108.406 9.21147 109.15 10.1663 110.329 10.1663C111.476 10.1663 112.245 9.19178 112.245 7.69881C112.245 6.21175 111.476 5.23131 110.329 5.23131ZM117.91 11.0312V5.2825H116.981V4.36638H117.91V3.62284C117.91 2.34119 118.507 1.73219 119.737 1.73219C119.986 1.73219 120.256 1.75778 120.416 1.78337V2.68703C120.282 2.668 120.095 2.64897 119.91 2.64897C119.307 2.64897 119.019 2.96922 119.019 3.62941V4.36638H120.384V5.2825H119.026V11.0312H117.91ZM121.538 11.0312V4.36638H122.588V5.45575H122.614C122.832 4.71878 123.447 4.25087 124.229 4.25087C124.421 4.25087 124.588 4.28303 124.678 4.2955V5.37897C124.588 5.34681 124.351 5.31466 124.082 5.31466C123.216 5.31466 122.653 5.93612 122.653 6.8785V11.0312H121.538ZM128.029 11.1468C126.184 11.1468 124.94 9.81981 124.94 7.69881C124.94 5.57125 126.184 4.25087 128.029 4.25087C129.869 4.25087 131.112 5.57125 131.112 7.69881C131.112 9.81981 129.869 11.1468 128.029 11.1468ZM128.029 10.1663C129.209 10.1663 129.978 9.26856 129.978 7.69881C129.978 6.1284 129.209 5.23131 128.029 5.23131C126.85 5.23131 126.075 6.1284 126.075 7.69881C126.075 9.26856 126.85 10.1663 128.029 10.1663ZM132.24 11.0312V4.36638H133.291V5.43015H133.317C133.631 4.72534 134.31 4.25087 135.207 4.25087C136.118 4.25087 136.79 4.71222 137.078 5.52006H137.104C137.476 4.72534 138.258 4.25087 139.194 4.25087C140.514 4.25087 141.366 5.10991 141.366 6.42962V11.0312H140.251V6.68622C140.251 5.776 139.745 5.23787 138.867 5.23787C137.982 5.23787 137.361 5.8915 137.361 6.79516V11.0312H136.246V6.56416C136.246 5.76353 135.708 5.23787 134.881 5.23787C133.996 5.23787 133.356 5.93022 133.356 6.85291V11.0312H132.24ZM149.461 11.1848C146.91 11.1848 145.295 9.33287 145.295 6.40403C145.295 3.50078 146.929 1.62981 149.461 1.62981C151.473 1.62981 153.004 2.85372 153.299 4.69975H152.133C151.838 3.48831 150.78 2.69359 149.461 2.69359C147.653 2.69359 146.481 4.1544 146.481 6.40403C146.481 8.67269 147.64 10.121 149.466 10.121C150.826 10.121 151.799 9.46741 152.133 8.33931H153.299C152.876 10.1663 151.505 11.1848 149.461 11.1848ZM157.254 11.1468C155.407 11.1468 154.165 9.81981 154.165 7.69881C154.165 5.57125 155.407 4.25087 157.254 4.25087C159.092 4.25087 160.336 5.57125 160.336 7.69881C160.336 9.81981 159.092 11.1468 157.254 11.1468ZM157.254 10.1663C158.432 10.1663 159.201 9.26856 159.201 7.69881C159.201 6.1284 158.432 5.23131 157.254 5.23131C156.074 5.23131 155.299 6.1284 155.299 7.69881C155.299 9.26856 156.074 10.1663 157.254 10.1663ZM164.226 11.1468C162.38 11.1468 161.137 9.81981 161.137 7.69881C161.137 5.57125 162.38 4.25087 164.226 4.25087C166.065 4.25087 167.309 5.57125 167.309 7.69881C167.309 9.81981 166.065 11.1468 164.226 11.1468ZM164.226 10.1663C165.405 10.1663 166.174 9.26856 166.174 7.69881C166.174 6.1284 165.405 5.23131 164.226 5.23131C163.047 5.23131 162.271 6.1284 162.271 7.69881C162.271 9.26856 163.047 10.1663 164.226 10.1663ZM171.673 4.25087C173.371 4.25087 174.525 5.60931 174.525 7.69881C174.525 9.78765 173.378 11.1468 171.698 11.1468C170.743 11.1468 169.974 10.6788 169.577 9.94844H169.552V13.2553H168.437V4.36638H169.494V5.49381H169.52C169.93 4.74437 170.705 4.25087 171.673 4.25087ZM171.455 10.1663C172.641 10.1663 173.384 9.21147 173.384 7.69881C173.384 6.19272 172.641 5.23131 171.455 5.23131C170.314 5.23131 169.545 6.21831 169.545 7.69881C169.545 9.18587 170.314 10.1663 171.455 10.1663ZM178.325 5.21884C177.28 5.21884 176.55 6.01947 176.479 7.12853H180.1C180.075 6.01356 179.376 5.21884 178.325 5.21884ZM180.075 9.12156H181.171C180.978 10.2877 179.85 11.1468 178.395 11.1468C176.486 11.1468 175.326 9.81981 175.326 7.72441C175.326 5.65459 176.505 4.25087 178.344 4.25087C180.145 4.25087 181.254 5.55813 181.254 7.57675V8.00003H176.473V8.06434C176.473 9.33943 177.223 10.1788 178.421 10.1788C179.267 10.1788 179.889 9.74959 180.075 9.12156ZM182.382 11.0312V4.36638H183.433V5.45575H183.458C183.676 4.71878 184.292 4.25087 185.073 4.25087C185.266 4.25087 185.432 4.28303 185.522 4.2955V5.37897C185.432 5.34681 185.195 5.31466 184.926 5.31466C184.061 5.31466 183.497 5.93612 183.497 6.8785V11.0312H182.382ZM190.451 11.0312H189.297V1.78337H190.451V6.29509H190.514L194.597 1.78337H196.052L192.251 5.87838L196.391 11.0312H194.917L191.45 6.69869L190.451 7.80119V11.0312ZM197.199 11.0312V4.36638H198.249V5.45575H198.275C198.493 4.71878 199.108 4.25087 199.89 4.25087C200.082 4.25087 200.249 4.28303 200.339 4.2955V5.37897C200.249 5.34681 200.012 5.31466 199.743 5.31466C198.877 5.31466 198.314 5.93612 198.314 6.8785V11.0312H197.199ZM201.306 11.0312V4.36638H202.422V11.0312H201.306ZM201.864 3.24485C201.486 3.24485 201.172 2.9305 201.172 2.5525C201.172 2.16794 201.486 1.86016 201.864 1.86016C202.249 1.86016 202.563 2.16794 202.563 2.5525C202.563 2.9305 202.249 3.24485 201.864 3.24485ZM203.812 6.20519C203.812 5.06463 204.832 4.25087 206.299 4.25087C207.677 4.25087 208.689 5.07119 208.741 6.19928H207.677C207.6 5.55813 207.081 5.16109 206.26 5.16109C205.447 5.16109 204.908 5.56469 204.908 6.14809C204.908 6.60944 205.261 6.91656 206.017 7.10885L207.048 7.35887C208.394 7.69881 208.881 8.18575 208.881 9.16619C208.881 10.3264 207.786 11.1468 206.228 11.1468C204.767 11.1468 203.748 10.352 203.633 9.17275H204.748C204.87 9.86509 205.395 10.2365 206.299 10.2365C207.203 10.2365 207.76 9.85197 207.76 9.24953C207.76 8.77506 207.485 8.51913 206.735 8.32028L205.562 8.01906C204.389 7.71785 203.812 7.11541 203.812 6.20519ZM210.401 2.7579H211.516V4.36638H212.81V5.2825H211.516V9.24297C211.516 9.85197 211.772 10.1276 212.342 10.1276C212.47 10.1276 212.727 10.1086 212.804 10.0954V11.0312C212.669 11.0634 212.361 11.0824 212.099 11.0824C210.875 11.0824 210.401 10.5824 210.401 9.30072V5.2825H209.407V4.36638H210.401V2.7579ZM214.06 11.0312V4.36638H215.175V11.0312H214.06ZM214.618 3.24485C214.24 3.24485 213.925 2.9305 213.925 2.5525C213.925 2.16794 214.24 1.86016 214.618 1.86016C215.002 1.86016 215.316 2.16794 215.316 2.5525C215.316 2.9305 215.002 3.24485 214.618 3.24485ZM216.681 11.0312V4.36638H217.732V5.43015H217.758C218.129 4.71222 218.841 4.25087 219.873 4.25087C221.334 4.25087 222.18 5.19325 222.18 6.70525V11.0312H221.065V6.90409C221.065 5.82719 220.558 5.23787 219.533 5.23787C218.482 5.23787 217.796 5.98141 217.796 7.10885V11.0312H216.681Z" fill="white"/>
</svg>
