<svg width="60" height="46" viewBox="0 0 60 46" fill="none" xmlns="http://www.w3.org/2000/svg">
<g id="cnbc-1" clip-path="url(#clip0_2_906)">
<path id="Vector" d="M10.511 38.799C10.2899 37.7361 9.41109 37.4531 8.4261 37.3621C5.24705 37.0704 4.68399 39.4272 4.68399 40.4223C4.68399 42.1235 5.18594 43.5315 8.30534 43.5315C8.8815 43.5315 10.4703 42.9438 10.4703 41.9892H14.9588C14.7769 44.8212 9.97707 45.4999 7.88341 45.4999C3.54622 45.4999 -0.168245 44.6984 0.0121682 40.4613C0.140203 37.4358 3.02099 35.3128 8.75492 35.4443C11.95 35.5194 15.0214 36.5057 15.033 38.799H10.511ZM55.4673 38.799C55.2476 37.7361 54.3674 37.4531 53.3838 37.3621C50.2048 37.0704 49.6417 39.4272 49.6417 40.4223C49.6417 42.1235 50.1422 43.5315 53.2645 43.5315C53.8407 43.5315 55.428 42.9438 55.428 41.9892H59.9165C59.7346 44.8212 54.9362 45.4999 52.8411 45.4999C48.5039 45.4999 44.7909 44.6984 44.9699 40.4613C45.0979 37.4358 47.9802 35.3128 53.7141 35.4443C56.9091 35.5194 59.9791 36.5057 59.9922 38.799H55.4673ZM15.8361 35.6479H21.6632L26.6347 42.5611H26.674V35.6479H30.4088V45.2472H24.8262L19.6102 38.3326H19.571V45.2472H15.8361V35.6479ZM31.5626 35.6479H38.6394C42.0411 35.6479 44.0416 36.5895 44.0416 38.0134C44.0416 38.8539 43.2036 39.8923 41.3369 40.1984V40.2259C43.5848 40.3587 44.4141 41.7682 44.4141 42.6131C44.4141 44.3056 42.4645 45.2472 38.6598 45.2472H31.5626V35.6479ZM35.6583 39.3767H36.8324C38.6394 39.3767 39.5982 39.2366 39.5982 38.4929C39.5982 37.6943 38.7995 37.43 37.1729 37.43H35.6568L35.6583 39.3767ZM35.6583 43.234H36.8324C39.0104 43.234 39.8092 43.0073 39.8092 42.2636C39.8092 41.465 38.8009 41.1992 37.1743 41.1992H35.6583V43.234Z" fill="white"/>
<path id="Vector_2" d="M18.2281 13.145L26.3568 31.5956L9.58718 20.1983C5.37949 17.4342 6.23208 12.6944 8.56436 10.6062C11.8613 7.84207 16.5229 8.80099 18.2281 13.145Z" fill="white"/>
<path id="Vector_3" d="M29.3686 8.80084L26.4136 29.4509L18.0011 9.81752C16.1824 4.90883 20.2737 1.69269 23.0032 1.63636C26.1299 1.29699 30.0509 3.66685 29.3686 8.80084Z" fill="white"/>
<path id="Vector_4" d="M42.1589 9.76145L33.8032 29.4526L31.1319 11.6793C30.9035 8.9715 32.6102 8.91517 33.2358 8.40683C33.1223 8.01113 32.2697 8.01113 32.2697 8.01113H30.678C30.5078 3.38404 34.1451 1.35356 37.1016 1.57884C40.2835 1.69293 43.8641 5.35965 42.1589 9.76145Z" fill="white"/>
<path id="Vector_5" d="M50.6864 20.0857L33.9182 31.5407L41.8185 13.3155C44.206 7.56048 49.777 8.68837 51.7659 10.8893C53.9251 13.0324 54.5507 17.3779 50.6864 20.0857Z" fill="white"/>
<path id="Vector_6" d="M52.4468 33.571H33.0641L48.8095 22.6806C52.6753 20.1418 56.768 22.4553 57.8476 25.7841C58.9853 29.5086 56.4261 33.571 52.4468 33.571Z" fill="white"/>
<path id="Vector_7" d="M2.25425 25.5588C3.73247 21.7217 7.82522 20.3671 11.4626 22.6806L27.2094 33.571H8.10894C4.12967 33.571 1.00446 29.9592 2.25425 25.5588Z" fill="white"/>
</g>
<defs>
<clipPath id="clip0_2_906">
<rect width="60" height="45" fill="white" transform="translate(0 0.5)"/>
</clipPath>
</defs>
</svg>
