<svg width="95" height="30" viewBox="0 0 95 30" fill="none" xmlns="http://www.w3.org/2000/svg">
<g id="reuters-2-1 1" clip-path="url(#clip0_2_917)">
<path id="Vector" d="M45.539 19.7193H43.8936C43.746 19.7193 43.691 19.5848 43.6244 19.4541L41.683 16.23H41.385C41.0332 16.23 39.9438 16.1922 39.6339 16.1753V19.4541C39.6339 19.5993 39.525 19.7193 39.3762 19.7193H38.0287C37.9576 19.7189 37.8894 19.6908 37.8391 19.6412C37.7888 19.5915 37.7603 19.5243 37.7599 19.4541V10.7404C37.7599 10.4736 37.9194 10.3807 38.1907 10.3414C38.8927 10.2348 40.3993 10.169 41.3846 10.169C43.4596 10.169 45.3767 10.9006 45.3767 13.1739V13.294C45.3767 14.702 44.6627 15.4725 43.5577 15.8955L45.6723 19.4541C45.7002 19.4942 45.7002 19.5316 45.7002 19.5615C45.7006 19.6517 45.6467 19.7193 45.539 19.7193ZM43.5171 13.1739C43.5171 12.1768 42.7328 11.7518 41.385 11.7518C41.101 11.7518 39.8748 11.7781 39.6339 11.8041V14.6878C39.8473 14.7008 41.1532 14.7279 41.385 14.7279C42.7715 14.7279 43.5171 14.4635 43.5171 13.294V13.1739ZM49.2938 17.1001C49.2938 18.2153 49.3372 18.2444 50.3564 18.2444H53.7681C53.8396 18.2446 53.9082 18.2727 53.9588 18.3225C54.0095 18.3723 54.0381 18.4399 54.0385 18.5104V19.3597C54.0385 19.5474 53.9707 19.6139 53.7681 19.6395C53.3373 19.7064 52.4594 19.8248 50.8566 19.8248C48.6196 19.8248 47.4325 19.8401 47.4325 17.1001V12.8934C47.4325 10.1541 48.6196 10.1694 50.8566 10.1694C52.4594 10.1694 53.3373 10.2895 53.7681 10.3552C53.9707 10.3807 54.0385 10.4484 54.0385 10.635V11.4846C54.0385 11.6298 53.9169 11.7522 53.7681 11.7522H50.3564C49.3372 11.7522 49.2938 11.7817 49.2938 12.8934V14.1133H53.607C53.6781 14.1136 53.7463 14.1415 53.7969 14.1909C53.8474 14.2404 53.8762 14.3075 53.877 14.3777V15.3375C53.8764 15.4079 53.8477 15.4752 53.7972 15.5249C53.7466 15.5746 53.6783 15.6027 53.607 15.6031H49.2938V17.1001ZM60.0897 19.8248C57.9217 19.8248 56.0537 18.8949 56.0537 16.0612V10.5283C56.0537 10.3807 56.177 10.2749 56.325 10.2749H57.6569C57.8064 10.2749 57.9269 10.3807 57.9269 10.5283V16.0612C57.9269 17.5778 58.6373 18.2972 60.0901 18.2972C61.5468 18.2972 62.2569 17.5778 62.2569 16.0612V10.5283C62.2569 10.3807 62.3773 10.2749 62.5253 10.2749H63.8592C64.0088 10.2749 64.1304 10.3807 64.1304 10.5283V16.0612C64.1296 18.8945 62.2608 19.8248 60.0897 19.8248ZM72.9914 11.8163H70.3028V19.4541C70.3017 19.5248 70.2724 19.5922 70.2214 19.6418C70.1704 19.6914 70.1016 19.7192 70.03 19.7193H68.6961C68.6248 19.719 68.5565 19.691 68.5059 19.6414C68.4554 19.5917 68.4267 19.5245 68.4261 19.4541V11.8163H65.7356C65.5892 11.8163 65.4675 11.725 65.4675 11.5786V10.5283C65.4675 10.3807 65.5892 10.2749 65.7356 10.2749H72.991C73.1366 10.2749 73.2582 10.3807 73.2582 10.5283V11.5786C73.2586 11.725 73.1373 11.8163 72.9914 11.8163ZM91.2936 19.7193H89.6482C89.5002 19.7193 89.4471 19.5848 89.3801 19.4541L87.4379 16.23H87.1372C86.7889 16.23 85.6984 16.1922 85.3864 16.1753V19.4541C85.3864 19.5993 85.2795 19.7193 85.1323 19.7193H83.7861C83.7147 19.7192 83.6462 19.6913 83.5955 19.6416C83.5449 19.592 83.5162 19.5246 83.5156 19.4541V10.7404C83.5156 10.4736 83.6752 10.3807 83.9456 10.3414C84.6461 10.2348 86.1551 10.169 87.1368 10.169C89.2138 10.169 91.1296 10.9006 91.1296 13.1739V13.294C91.1296 14.702 90.4144 15.4725 89.3099 15.8955L91.4284 19.4541C91.4489 19.4861 91.4584 19.5238 91.4555 19.5615C91.4555 19.6517 91.4005 19.7193 91.2936 19.7193ZM89.272 13.1739C89.272 12.1768 88.4874 11.7518 87.1372 11.7518C86.8559 11.7518 85.6298 11.7781 85.3864 11.8041V14.6878C85.6046 14.7008 86.9118 14.7279 87.1372 14.7279C88.5277 14.7279 89.272 14.4635 89.272 13.294V13.1739ZM96.4372 19.8307C95.2462 19.8307 94.0391 19.6292 93.3909 19.4824C93.2577 19.4557 93.1352 19.3632 93.1352 19.2172V18.2594C93.1352 18.1142 93.2577 18.0064 93.3909 18.0064H93.4173C93.9578 18.0732 95.2194 18.246 96.4652 18.246C97.6634 18.246 98.0304 17.8226 98.0304 17.0525C98.0304 16.0549 95.6175 15.5028 94.4396 15.0243C93.2673 14.5457 92.852 13.6296 92.852 12.7001C92.852 11.2367 94.0455 10.173 96.5517 10.173C97.8365 10.173 99.0129 10.4138 99.4708 10.5224C99.6064 10.5492 99.7121 10.6424 99.7121 10.7747V11.7585C99.7121 11.8899 99.6204 11.9973 99.4832 11.9973H99.4576C98.5673 11.9182 97.6447 11.7565 96.4732 11.7565C95.4743 11.7565 94.7272 12.102 94.7272 12.7001C94.7272 13.1377 95.2338 13.5395 95.8321 13.7741C96.4305 14.0066 97.2151 14.3077 98.1118 14.6634C99.247 15.1164 99.983 15.7763 99.983 17.0525C99.9826 18.3944 99.1341 19.8307 96.4372 19.8307ZM76.506 17.1001C76.506 18.2153 76.5479 18.2444 77.5694 18.2444H80.9835C81.0545 18.2455 81.1222 18.2739 81.1722 18.3236C81.2221 18.3734 81.2503 18.4404 81.2507 18.5104V19.3597C81.2507 19.5474 81.1829 19.6139 80.9835 19.6395C80.5495 19.7064 79.6731 19.8248 78.0704 19.8248C75.829 19.8248 74.6448 19.8401 74.6448 17.1001V12.8934C74.6448 10.1541 75.829 10.1694 78.0704 10.1694C79.6731 10.1694 80.5495 10.2895 80.9835 10.3552C81.1829 10.3807 81.2507 10.4484 81.2507 10.635V11.4846C81.2507 11.6298 81.1283 11.7522 80.9835 11.7522H77.5694C76.5479 11.7522 76.506 11.7817 76.506 12.8934V14.1133H80.8195C80.9691 14.1133 81.0868 14.2341 81.0868 14.3777V15.3375C81.087 15.4077 81.059 15.4751 81.0089 15.5249C80.9588 15.5747 80.8907 15.6028 80.8195 15.6031H76.506V17.1001ZM21.6021 9.82628C21.4213 10.0144 21.1722 10.124 20.9096 10.1311C20.6469 10.1382 20.3921 10.0422 20.2012 9.86406C20.1063 9.77611 20.0299 9.6705 19.9765 9.55332C19.9232 9.43613 19.8938 9.30969 19.8902 9.18126C19.8865 9.05284 19.9087 8.92498 19.9554 8.80504C20.002 8.6851 20.0723 8.57545 20.1621 8.48242C20.2511 8.3888 20.3579 8.31342 20.4765 8.26061C20.595 8.20779 20.723 8.17857 20.853 8.17462C20.983 8.17068 21.1126 8.19208 21.2342 8.2376C21.3558 8.28312 21.4672 8.35187 21.5618 8.43992C21.7532 8.61864 21.865 8.86498 21.8725 9.12488C21.8801 9.38478 21.7828 9.63703 21.6021 9.82628ZM11.7236 7.60369C11.629 7.51633 11.5032 7.46939 11.3737 7.47307C11.2441 7.47676 11.1213 7.53077 11.0319 7.62336C10.9435 7.71645 10.8959 7.84027 10.8997 7.96781C10.9034 8.09535 10.9581 8.21626 11.0519 8.30415C11.1465 8.3916 11.2724 8.43854 11.402 8.4347C11.5316 8.43087 11.6544 8.37657 11.7436 8.28369C11.832 8.19073 11.8795 8.06704 11.8757 7.93963C11.872 7.81222 11.8173 7.69145 11.7236 7.60369ZM14.2003 6.6742C14.0836 6.56658 13.9284 6.50887 13.7688 6.51367C13.6091 6.51846 13.4578 6.58536 13.3479 6.69978C13.2935 6.75679 13.251 6.82383 13.2228 6.89705C13.1947 6.97028 13.1814 7.04826 13.1838 7.12653C13.1862 7.20481 13.2043 7.28185 13.2369 7.35326C13.2695 7.42466 13.316 7.48903 13.3738 7.54269C13.4908 7.65018 13.6461 7.70769 13.8058 7.70268C13.9656 7.69767 14.1168 7.63054 14.2266 7.51593C14.3356 7.40055 14.394 7.24736 14.3891 7.08972C14.3841 6.93208 14.3163 6.78274 14.2003 6.6742ZM16.8569 6.48255C16.7088 6.3455 16.5117 6.27184 16.3087 6.27766C16.1057 6.28349 15.9133 6.36833 15.7735 6.51364C15.6412 6.66087 15.5722 6.85314 15.5811 7.04972C15.5899 7.2463 15.6761 7.43174 15.8212 7.56676C15.9663 7.70177 16.159 7.77575 16.3584 7.77302C16.5578 7.77029 16.7484 7.69107 16.8896 7.55214C17.0286 7.40582 17.1032 7.21114 17.0971 7.01068C17.091 6.81023 17.0046 6.62034 16.8569 6.48255ZM19.3703 7.1173C19.2881 7.04041 19.1912 6.9803 19.0854 6.94042C18.9795 6.90055 18.8667 6.8817 18.7534 6.88496C18.6402 6.88821 18.5287 6.9135 18.4253 6.95939C18.322 7.00527 18.2289 7.07084 18.1513 7.15232C18.0735 7.23348 18.0127 7.32896 17.9724 7.43329C17.932 7.53763 17.9129 7.6488 17.9161 7.76043C17.9193 7.87207 17.9447 7.98199 17.9909 8.08392C18.0372 8.18586 18.1033 8.27781 18.1856 8.35452C18.3523 8.50899 18.5742 8.59203 18.8028 8.58547C19.0314 8.5789 19.2481 8.48327 19.4054 8.3195C19.562 8.1553 19.6462 7.93658 19.6396 7.71125C19.633 7.48591 19.5362 7.27234 19.3703 7.1173ZM9.62386 9.23128C9.55333 9.16635 9.45968 9.13151 9.36326 9.13431C9.26684 9.1371 9.17543 9.17733 9.10889 9.24623C9.0759 9.28041 9.05008 9.32068 9.03292 9.36473C9.01576 9.40878 9.00759 9.45574 9.00889 9.50292C9.01019 9.55009 9.02092 9.59655 9.04048 9.63962C9.06004 9.68269 9.08803 9.72151 9.12285 9.75387C9.15744 9.78654 9.19826 9.81211 9.24294 9.8291C9.28762 9.84608 9.33527 9.85415 9.38314 9.85284C9.431 9.85152 9.47813 9.84084 9.52178 9.82142C9.56543 9.802 9.60473 9.77423 9.63742 9.73971C9.70386 9.67046 9.73974 9.57804 9.73719 9.48273C9.73465 9.38741 9.69389 9.29699 9.62386 9.23128ZM22.3077 18.1004C22.2188 18.1936 22.1709 18.3179 22.1746 18.4458C22.1784 18.5738 22.2334 18.6951 22.3277 18.7832C22.4231 18.8669 22.5479 18.9107 22.6756 18.9051C22.8032 18.8995 22.9236 18.845 23.0111 18.7532C23.0987 18.6614 23.1465 18.5395 23.1444 18.4135C23.1422 18.2875 23.0904 18.1673 22.9998 18.0784C22.9049 17.9911 22.7788 17.9444 22.6492 17.9486C22.5195 17.9527 22.3967 18.0073 22.3077 18.1004ZM22.934 15.6102C22.8253 15.7255 22.7673 15.8785 22.7724 16.0359C22.7776 16.1932 22.8456 16.3422 22.9615 16.4504C23.0191 16.5042 23.0869 16.5462 23.161 16.5741C23.2352 16.602 23.3141 16.6151 23.3934 16.6128C23.4727 16.6105 23.5508 16.5927 23.6231 16.5605C23.6954 16.5283 23.7605 16.4823 23.8147 16.4252C23.8693 16.3684 23.9119 16.3015 23.9401 16.2284C23.9683 16.1553 23.9815 16.0774 23.979 15.9992C23.9766 15.921 23.9584 15.8441 23.9256 15.7729C23.8928 15.7017 23.8461 15.6375 23.788 15.5842C23.671 15.4765 23.5156 15.4187 23.3556 15.4236C23.1956 15.4285 23.044 15.4956 22.934 15.6102ZM22.7417 12.9878C22.6726 13.06 22.6186 13.145 22.5829 13.2378C22.5471 13.3306 22.5303 13.4295 22.5334 13.5288C22.5364 13.6281 22.5594 13.7257 22.6008 13.8163C22.6422 13.9068 22.7014 13.9883 22.7748 14.0562C22.848 14.1243 22.9342 14.1776 23.0283 14.2128C23.1224 14.248 23.2226 14.2646 23.3232 14.2616C23.4238 14.2586 23.5228 14.236 23.6145 14.1951C23.7063 14.1543 23.789 14.096 23.8578 14.0236C23.9928 13.8768 24.064 13.6837 24.056 13.4857C24.0481 13.2877 23.9617 13.1007 23.8154 12.9649C23.6691 12.8292 23.4746 12.7555 23.2738 12.7598C23.073 12.764 22.8819 12.8459 22.7417 12.9878ZM21.8139 10.5574C21.6969 10.68 21.6194 10.834 21.5913 11.0001C21.5631 11.1661 21.5854 11.3367 21.6555 11.4901C21.7256 11.6436 21.8403 11.7731 21.985 11.8623C22.1298 11.9515 22.2981 11.9963 22.4686 11.991C22.6392 11.9858 22.8043 11.9308 22.9432 11.8329C23.082 11.735 23.1883 11.5987 23.2486 11.4412C23.3089 11.2837 23.3204 11.1122 23.2818 10.9482C23.2432 10.7842 23.1562 10.6352 23.0317 10.5201C22.6879 10.1982 22.1414 10.2167 21.8139 10.5574ZM20.9615 20.2604C20.8956 20.3301 20.8604 20.4227 20.8634 20.5179C20.8664 20.6131 20.9074 20.7033 20.9774 20.7689C21.0123 20.8011 21.0533 20.8262 21.0981 20.8427C21.1428 20.8592 21.1905 20.8668 21.2382 20.8651C21.286 20.8634 21.3329 20.8524 21.3763 20.8327C21.4198 20.813 21.4588 20.785 21.4912 20.7504C21.5243 20.7165 21.5503 20.6765 21.5675 20.6326C21.5847 20.5887 21.5928 20.5419 21.5914 20.4949C21.5899 20.4478 21.5789 20.4016 21.559 20.3588C21.5392 20.316 21.5108 20.2776 21.4756 20.2459C21.4411 20.2131 21.4003 20.1875 21.3557 20.1705C21.311 20.1535 21.2633 20.1454 21.2155 20.1468C21.1676 20.1482 21.1205 20.1589 21.0769 20.1784C21.0333 20.1979 20.994 20.2258 20.9615 20.2604ZM10.4404 21.5173C10.618 21.328 10.7127 21.0772 10.7039 20.8194C10.695 20.5615 10.5833 20.3176 10.3931 20.1406C10.2029 19.9635 9.94956 19.8678 9.68815 19.8741C9.42673 19.8804 9.17842 19.9883 8.9972 20.1742C8.8258 20.3646 8.73629 20.6133 8.74766 20.8677C8.75903 21.122 8.8704 21.362 9.05813 21.5367C9.24585 21.7114 9.49519 21.8071 9.75324 21.8035C10.0113 21.7999 10.2578 21.6972 10.4404 21.5173ZM8.29436 11.8989C8.33844 11.8528 8.37289 11.7986 8.39573 11.7394C8.41858 11.6802 8.42937 11.6171 8.4275 11.5537C8.42563 11.4904 8.41113 11.428 8.38483 11.3702C8.35853 11.3124 8.32094 11.2603 8.27422 11.2168C8.22749 11.1733 8.17254 11.1393 8.11251 11.1168C8.05247 11.0942 7.98852 11.0836 7.92431 11.0854C7.8601 11.0873 7.79689 11.1016 7.73828 11.1275C7.67968 11.1535 7.62682 11.1906 7.58274 11.2367C7.39527 11.4295 7.40644 11.7337 7.60468 11.9178C7.79894 12.0989 8.10768 12.0914 8.29436 11.8989ZM7.66571 14.3903C7.77495 14.275 7.83363 14.1218 7.829 13.964C7.82437 13.8063 7.7568 13.6567 7.64098 13.5478C7.52375 13.4442 7.37017 13.3899 7.21293 13.3963C7.05569 13.4028 6.90722 13.4695 6.79913 13.5824C6.69104 13.6952 6.63187 13.8452 6.63421 14.0005C6.63656 14.1557 6.70024 14.3039 6.81169 14.4135C6.92833 14.5216 7.08357 14.5799 7.24355 14.5755C7.40353 14.5712 7.55529 14.5046 7.66571 14.3903ZM7.85917 17.0115C7.99886 16.8652 8.07392 16.6701 8.06786 16.4692C8.0618 16.2682 7.97512 16.0779 7.82686 15.94C7.67853 15.8026 7.48099 15.729 7.27764 15.7352C7.07429 15.7413 6.88175 15.8269 6.74229 15.973C6.60339 16.1194 6.52894 16.3141 6.53522 16.5145C6.5415 16.7149 6.628 16.9046 6.77579 17.0422C7.08533 17.3307 7.56958 17.3153 7.85917 17.0115ZM8.7854 19.4427C8.94202 19.2784 9.02624 19.0596 9.01959 18.8342C9.01293 18.6087 8.91595 18.3951 8.74989 18.2401C8.66767 18.1635 8.57091 18.1037 8.46519 18.0641C8.35946 18.0244 8.24684 18.0058 8.1338 18.0093C8.02076 18.0127 7.90952 18.0381 7.80646 18.0841C7.70341 18.13 7.61057 18.1956 7.53328 18.2771C7.45527 18.3581 7.39422 18.4534 7.35364 18.5577C7.31305 18.662 7.29372 18.7732 7.29676 18.8849C7.2998 18.9966 7.32514 19.1066 7.37134 19.2086C7.41754 19.3106 7.48369 19.4026 7.56599 19.4793C7.73316 19.6329 7.955 19.7152 8.18332 19.7083C8.41164 19.7015 8.628 19.606 8.7854 19.4427ZM18.8773 22.3957C18.924 22.4392 18.9789 22.4732 19.0389 22.4957C19.099 22.5183 19.1629 22.5289 19.2271 22.5269C19.2913 22.525 19.3545 22.5105 19.413 22.4844C19.4716 22.4583 19.5243 22.4211 19.5682 22.3748C19.6122 22.3289 19.6466 22.2748 19.6694 22.2157C19.6922 22.1566 19.7029 22.0937 19.7009 22.0305C19.699 21.9673 19.6843 21.9051 19.6579 21.8475C19.6315 21.7899 19.5938 21.738 19.547 21.6948C19.5005 21.6513 19.4457 21.6172 19.3858 21.5947C19.3259 21.5721 19.2621 21.5614 19.198 21.5632C19.1339 21.565 19.0709 21.5794 19.0124 21.6053C18.9539 21.6313 18.9012 21.6684 18.8573 21.7145C18.7685 21.8074 18.7207 21.9314 18.7244 22.0591C18.7281 22.1869 18.7831 22.3079 18.8773 22.3957ZM16.4006 23.324C16.6439 23.5502 17.0252 23.5353 17.2538 23.2976C17.3082 23.2409 17.3508 23.1742 17.379 23.1013C17.4073 23.0284 17.4206 22.9507 17.4183 22.8726C17.416 22.7946 17.3981 22.7178 17.3657 22.6466C17.3332 22.5754 17.2868 22.5113 17.2291 22.4578C17.1121 22.3496 16.9563 22.2916 16.796 22.2964C16.6357 22.3013 16.4839 22.3687 16.3739 22.4838C16.265 22.599 16.2068 22.7519 16.2118 22.9093C16.2168 23.0667 16.2846 23.2158 16.4006 23.324ZM13.7424 23.5133C14.0535 23.8025 14.5354 23.7883 14.8254 23.4845C14.8947 23.4125 14.9489 23.3277 14.9848 23.2349C15.0208 23.1422 15.0379 23.0434 15.0351 22.9441C15.0323 22.8448 15.0096 22.7471 14.9684 22.6565C14.9272 22.5659 14.8683 22.4842 14.7951 22.4161C14.6468 22.2786 14.4494 22.2045 14.2459 22.2101C14.0425 22.2157 13.8495 22.3005 13.7093 22.446C13.6403 22.5182 13.5864 22.6031 13.5507 22.6958C13.5151 22.7885 13.4983 22.8873 13.5014 22.9864C13.5044 23.0856 13.5273 23.1831 13.5687 23.2735C13.61 23.3639 13.6691 23.4454 13.7424 23.5133ZM11.2342 22.882C11.3163 22.9587 11.413 23.0186 11.5187 23.0583C11.6243 23.098 11.7369 23.1168 11.8499 23.1135C11.963 23.1102 12.0742 23.0849 12.1773 23.0392C12.2804 22.9934 12.3734 22.9279 12.4508 22.8466C12.5283 22.7653 12.5888 22.6697 12.6289 22.5654C12.6689 22.461 12.6877 22.3498 12.6843 22.2383C12.6808 22.1267 12.6551 22.0169 12.6086 21.9152C12.5621 21.8134 12.4957 21.7217 12.4133 21.6452C12.3309 21.5688 12.234 21.5091 12.1282 21.4695C12.0224 21.43 11.9097 21.4115 11.7966 21.4149C11.6835 21.4183 11.5722 21.4437 11.4691 21.4896C11.366 21.5354 11.273 21.6009 11.1955 21.6822C11.118 21.7634 11.0576 21.8589 11.0176 21.9632C10.9776 22.0675 10.9588 22.1786 10.9624 22.29C10.966 22.4015 10.9919 22.5112 11.0385 22.6128C11.0851 22.7143 11.1516 22.8059 11.2342 22.882Z" fill="white"/>
<g id="Group">
<path id="Vector_2" d="M17.762 9.43878C17.7334 9.53441 17.6859 9.62352 17.6223 9.701C17.5587 9.77848 17.4802 9.84281 17.3913 9.89031C17.3024 9.9378 17.205 9.96751 17.1044 9.97775C17.0039 9.98799 16.9023 9.97855 16.8055 9.94996C16.708 9.92219 16.617 9.87562 16.5378 9.81296C16.4587 9.7503 16.3929 9.67279 16.3442 9.5849C16.2956 9.49701 16.2651 9.40049 16.2545 9.30091C16.2439 9.20133 16.2535 9.10066 16.2825 9.00473C16.3409 8.81118 16.4748 8.64843 16.6547 8.55227C16.7439 8.50465 16.8416 8.47482 16.9424 8.46448C17.0432 8.45413 17.1451 8.46348 17.2422 8.49198C17.3394 8.52048 17.4299 8.56757 17.5086 8.63058C17.5873 8.69359 17.6526 8.77127 17.7009 8.85919C17.7492 8.9471 17.7794 9.04354 17.7899 9.14299C17.8004 9.24244 17.7909 9.34295 17.762 9.43878ZM10.3654 11.236C10.2681 11.2093 10.1641 11.2212 10.0755 11.2691C9.98697 11.317 9.92094 11.3972 9.89152 11.4926C9.86718 11.5869 9.88091 11.6869 9.92982 11.7715C9.97873 11.856 10.059 11.9186 10.1537 11.9459C10.2484 11.9733 10.3502 11.9633 10.4376 11.9181C10.525 11.8728 10.5912 11.7959 10.6223 11.7035C10.6853 11.5055 10.5656 11.2974 10.3654 11.236ZM11.7037 9.7839C11.6445 9.76668 11.5824 9.76118 11.521 9.76772C11.4596 9.77426 11.4002 9.79271 11.346 9.822C11.2919 9.8513 11.2442 9.89086 11.2056 9.93842C11.167 9.98597 11.1384 10.0406 11.1213 10.0991C11.1036 10.1576 11.0979 10.2189 11.1043 10.2795C11.1108 10.3402 11.1293 10.399 11.1589 10.4525C11.1885 10.5061 11.2285 10.5533 11.2767 10.5915C11.3249 10.6298 11.3802 10.6582 11.4396 10.6752C11.5594 10.7094 11.6881 10.6955 11.7975 10.6365C11.907 10.5776 11.9884 10.4783 12.024 10.3604C12.0584 10.2421 12.044 10.1151 11.984 10.0071C11.9241 9.89919 11.8233 9.81896 11.7037 9.7839ZM13.4185 8.76036C13.2663 8.71702 13.103 8.73455 12.9638 8.80916C12.8247 8.88377 12.7209 9.00945 12.675 9.15899C12.6311 9.30927 12.6493 9.47057 12.7256 9.60764C12.802 9.74472 12.9302 9.84642 13.0822 9.89054C13.1575 9.91271 13.2364 9.91997 13.3144 9.91188C13.3925 9.90379 13.4682 9.88053 13.5371 9.84342C13.606 9.80632 13.6668 9.75612 13.7159 9.69572C13.7651 9.63532 13.8016 9.56592 13.8234 9.49151C13.8663 9.34161 13.848 9.18107 13.7723 9.04436C13.6966 8.90765 13.5696 8.80568 13.4185 8.76036ZM15.3176 8.34126C15.2329 8.31623 15.144 8.308 15.056 8.31703C14.968 8.32606 14.8828 8.35218 14.8051 8.39388C14.7274 8.43559 14.6588 8.49205 14.6034 8.56001C14.5479 8.62797 14.5066 8.7061 14.4819 8.78987C14.4567 8.87335 14.4485 8.96092 14.4577 9.04755C14.467 9.13418 14.4934 9.21816 14.5356 9.29466C14.5779 9.37116 14.635 9.43867 14.7037 9.49332C14.7725 9.54798 14.8515 9.58868 14.9363 9.61311C15.1071 9.66234 15.2907 9.64287 15.447 9.55895C15.6032 9.47504 15.7195 9.33351 15.7703 9.16529C15.7959 9.08186 15.8044 8.99427 15.7954 8.90758C15.7864 8.82089 15.7601 8.73682 15.718 8.66021C15.6759 8.5836 15.6189 8.51597 15.5502 8.46123C15.4814 8.40648 15.4024 8.36571 15.3176 8.34126ZM9.51936 13.0336C9.48377 13.0231 9.44643 13.0198 9.40951 13.0236C9.37259 13.0275 9.33681 13.0385 9.30422 13.0561C9.27163 13.0736 9.24289 13.0974 9.21963 13.1259C9.19638 13.1545 9.17908 13.1873 9.16873 13.2225C9.15785 13.2579 9.15415 13.2951 9.15785 13.3319C9.16154 13.3688 9.17256 13.4045 9.19026 13.4371C9.20797 13.4698 9.23202 13.4987 9.26104 13.5221C9.29007 13.5456 9.32349 13.5632 9.3594 13.5739C9.51178 13.6172 9.66894 13.5306 9.71322 13.3818C9.72377 13.3464 9.72713 13.3093 9.72309 13.2726C9.71905 13.2359 9.7077 13.2003 9.68968 13.1679C9.67167 13.1356 9.64735 13.107 9.61812 13.084C9.58889 13.0609 9.55532 13.0438 9.51936 13.0336ZM21.0421 14.7233C21.0277 14.7707 21.0231 14.8204 21.0283 14.8696C21.0336 14.9188 21.0487 14.9664 21.0728 15.0098C21.0969 15.0532 21.1295 15.0914 21.1686 15.1223C21.2078 15.1532 21.2528 15.1761 21.3009 15.1897C21.3978 15.2178 21.5021 15.2068 21.5908 15.1591C21.6795 15.1114 21.7453 15.0309 21.7738 14.9353C21.8023 14.8397 21.7912 14.7368 21.7428 14.6493C21.6945 14.5618 21.6128 14.4969 21.5159 14.4687C21.4189 14.4408 21.3145 14.4519 21.2257 14.4996C21.1369 14.5473 21.0709 14.6277 21.0421 14.7233ZM20.6017 12.8443C20.5838 12.9029 20.578 12.9644 20.5844 13.0253C20.5908 13.0862 20.6094 13.1452 20.639 13.199C20.6687 13.2527 20.7089 13.3002 20.7573 13.3385C20.8056 13.3768 20.8612 13.4054 20.9208 13.4224C21.1721 13.4956 21.4314 13.3539 21.5048 13.1076C21.5782 12.8612 21.4366 12.6042 21.1873 12.5334C21.1281 12.5159 21.0661 12.51 21.0046 12.5161C20.9432 12.5222 20.8835 12.5402 20.8291 12.5691C20.7748 12.598 20.7267 12.6371 20.6876 12.6844C20.6486 12.7316 20.6194 12.7859 20.6017 12.8443ZM19.5646 11.1541C19.5425 11.2284 19.5355 11.3062 19.5439 11.3831C19.5524 11.46 19.576 11.5345 19.6137 11.6024C19.6513 11.6703 19.7021 11.7302 19.7632 11.7787C19.8242 11.8272 19.8944 11.8633 19.9697 11.8851C20.0449 11.9068 20.1238 11.9138 20.2017 11.9055C20.2797 11.8972 20.3552 11.8738 20.424 11.8367C20.4928 11.7996 20.5535 11.7494 20.6027 11.6892C20.6519 11.6289 20.6885 11.5597 20.7106 11.4855C20.7329 11.4114 20.7401 11.3336 20.7318 11.2568C20.7235 11.1799 20.6998 11.1054 20.6621 11.0377C20.6244 10.9699 20.5734 10.9102 20.5122 10.8619C20.451 10.8137 20.3807 10.7779 20.3053 10.7567C20.1537 10.7135 19.9909 10.731 19.8522 10.8054C19.7136 10.8798 19.6102 11.0051 19.5646 11.1541ZM18.105 9.84135C18.0552 10.0101 18.0753 10.1915 18.161 10.3456C18.2467 10.4998 18.3909 10.614 18.562 10.6632C18.733 10.7124 18.9169 10.6926 19.0731 10.608C19.2294 10.5235 19.3452 10.3812 19.3951 10.2124C19.4202 10.1291 19.4285 10.0416 19.4193 9.95506C19.4101 9.86852 19.3837 9.78463 19.3416 9.7082C19.2994 9.63178 19.2424 9.56432 19.1737 9.50971C19.1051 9.4551 19.0262 9.41441 18.9415 9.38999C18.7699 9.34051 18.5854 9.36025 18.4286 9.44489C18.2717 9.52952 18.1554 9.67212 18.105 9.84135ZM20.8877 16.6201C20.8671 16.6913 20.8756 16.7676 20.9113 16.8326C20.947 16.8977 21.0071 16.9464 21.0788 16.9684C21.1146 16.979 21.1523 16.9825 21.1896 16.9786C21.2268 16.9748 21.2629 16.9636 21.2958 16.9459C21.3286 16.9281 21.3576 16.9041 21.3809 16.8752C21.4043 16.8463 21.4216 16.8131 21.4318 16.7775C21.4426 16.7422 21.4462 16.7051 21.4424 16.6684C21.4386 16.6317 21.4274 16.5961 21.4096 16.5637C21.3918 16.5312 21.3676 16.5026 21.3384 16.4795C21.3093 16.4564 21.2758 16.4391 21.2399 16.4289C21.1675 16.4088 21.09 16.4176 21.0241 16.4534C20.9583 16.4892 20.9093 16.549 20.8877 16.6201ZM14.3204 20.9976C14.3493 20.9014 14.3587 20.8005 14.348 20.7007C14.3373 20.6009 14.3067 20.5041 14.258 20.416C14.2093 20.3279 14.1434 20.2501 14.0642 20.1872C13.985 20.1242 13.8939 20.0774 13.7962 20.0492C13.699 20.021 13.5971 20.012 13.4963 20.0226C13.3955 20.0333 13.2978 20.0635 13.2089 20.1114C13.1199 20.1594 13.0414 20.2242 12.9779 20.3021C12.9143 20.38 12.867 20.4695 12.8385 20.5655C12.8097 20.6617 12.8003 20.7625 12.8111 20.8623C12.8218 20.962 12.8524 21.0587 12.9011 21.1467C12.9498 21.2347 13.0156 21.3124 13.0948 21.3753C13.1741 21.4382 13.2651 21.485 13.3627 21.5131C13.7719 21.63 14.2039 21.3978 14.3204 20.9976ZM9.55885 15.2766C9.58756 15.1811 9.57663 15.0782 9.52845 14.9906C9.48028 14.903 9.39881 14.8379 9.30196 14.8095C9.20465 14.7823 9.10041 14.7939 9.01164 14.8417C8.92288 14.8896 8.85668 14.9698 8.82729 15.0653C8.81332 15.1126 8.80895 15.1621 8.81442 15.2111C8.8199 15.26 8.83512 15.3074 8.85921 15.3506C8.8833 15.3937 8.91578 15.4318 8.95479 15.4625C8.99381 15.4932 9.03859 15.516 9.08656 15.5297C9.13441 15.5439 9.18464 15.5486 9.23436 15.5436C9.28407 15.5386 9.33228 15.5239 9.3762 15.5003C9.42012 15.4768 9.45887 15.4449 9.49022 15.4065C9.52157 15.3681 9.5449 15.324 9.55885 15.2766ZM10 17.1545C10.0176 17.0964 10.0233 17.0355 10.0168 16.9752C10.0103 16.9149 9.99176 16.8565 9.96222 16.8034C9.93269 16.7502 9.89276 16.7034 9.84474 16.6656C9.79673 16.6278 9.74158 16.5997 9.6825 16.5831C9.62343 16.5649 9.56126 16.5585 9.49965 16.5644C9.43805 16.5703 9.37827 16.5884 9.32386 16.6175C9.26944 16.6466 9.2215 16.6861 9.18287 16.7338C9.14423 16.7815 9.11569 16.8364 9.09893 16.8952C9.06407 17.0131 9.07811 17.1398 9.13795 17.2474C9.1978 17.3551 9.29855 17.4349 9.41804 17.4693C9.53753 17.5037 9.66598 17.4899 9.77512 17.4308C9.88426 17.3718 9.96516 17.2724 10 17.1545ZM11.0387 18.847C11.0825 18.6962 11.0642 18.5345 10.9879 18.3969C10.9116 18.2593 10.7834 18.1569 10.6311 18.1119C10.4789 18.0687 10.3155 18.0867 10.1768 18.162C10.038 18.2373 9.93518 18.3638 9.89072 18.5137C9.86835 18.5879 9.86107 18.6657 9.86929 18.7427C9.87751 18.8196 9.90107 18.8942 9.93863 18.9622C9.97618 19.0301 10.027 19.0901 10.0881 19.1386C10.1492 19.1871 10.2195 19.2232 10.2948 19.2449C10.3701 19.2671 10.4492 19.2744 10.5274 19.2665C10.6056 19.2585 10.6814 19.2354 10.7505 19.1984C10.8196 19.1614 10.8807 19.1114 10.9301 19.0511C10.9796 18.9908 11.0165 18.9214 11.0387 18.847ZM12.4983 20.1618C12.5478 19.9926 12.5273 19.8111 12.4414 19.6568C12.3555 19.5025 12.2112 19.388 12.0399 19.3385C11.9553 19.3139 11.8665 19.306 11.7788 19.3155C11.6911 19.3249 11.6061 19.3513 11.5288 19.3934C11.4515 19.4354 11.3834 19.4921 11.3284 19.5602C11.2735 19.6283 11.2328 19.7065 11.2087 19.7903C11.1838 19.8736 11.1758 19.9609 11.1852 20.0473C11.1945 20.1336 11.2211 20.2173 11.2633 20.2935C11.3055 20.3697 11.3625 20.437 11.4311 20.4914C11.4997 20.5459 11.5785 20.5864 11.663 20.6108C11.8341 20.6598 12.0179 20.6401 12.1744 20.556C12.3308 20.4719 12.4472 20.3302 12.4983 20.1618ZM20.2343 18.7628C20.3316 18.7913 20.4363 18.7805 20.5256 18.7328C20.6148 18.6852 20.6812 18.6045 20.7102 18.5086C20.738 18.4128 20.7265 18.3101 20.6783 18.2225C20.63 18.135 20.5487 18.0697 20.4521 18.0407C20.3551 18.0133 20.251 18.0247 20.1624 18.0724C20.0738 18.1201 20.0077 18.2003 19.9786 18.2957C19.9502 18.3911 19.9611 18.4937 20.009 18.5812C20.0569 18.6687 20.1379 18.7339 20.2343 18.7628ZM18.8984 20.2169C19.0175 20.2515 19.1456 20.2381 19.2547 20.1796C19.3638 20.1211 19.4448 20.0222 19.48 19.9048C19.4981 19.8464 19.5043 19.7851 19.4981 19.7243C19.492 19.6636 19.4738 19.6046 19.4445 19.5508C19.4151 19.4971 19.3753 19.4496 19.3272 19.4111C19.2792 19.3727 19.2239 19.344 19.1645 19.3267C19.0444 19.292 18.9153 19.3055 18.8053 19.3643C18.6953 19.4232 18.6133 19.5225 18.5773 19.6408C18.5437 19.7591 18.5585 19.8858 18.6186 19.9935C18.6786 20.1012 18.7791 20.1814 18.8984 20.2169ZM17.1836 21.2408C17.259 21.263 17.3382 21.2702 17.4164 21.2621C17.4947 21.2539 17.5706 21.2306 17.6397 21.1934C17.7087 21.1562 17.7697 21.1058 17.8189 21.0453C17.8682 20.9847 17.9049 20.9152 17.9267 20.8406C17.9487 20.7664 17.9557 20.6887 17.9472 20.6119C17.9388 20.5351 17.915 20.4607 17.8774 20.3929C17.8398 20.3252 17.789 20.2654 17.7279 20.217C17.6668 20.1686 17.5967 20.1326 17.5215 20.111C17.4463 20.0891 17.3674 20.0821 17.2895 20.0902C17.2115 20.0984 17.136 20.1216 17.0671 20.1586C16.9982 20.1956 16.9374 20.2456 16.8882 20.3058C16.8389 20.3659 16.8021 20.4351 16.7799 20.5092C16.7578 20.5834 16.7506 20.6612 16.7589 20.7381C16.7672 20.815 16.7907 20.8896 16.8282 20.9575C16.8657 21.0254 16.9164 21.0854 16.9773 21.134C17.0383 21.1826 17.1084 21.2189 17.1836 21.2408ZM15.2861 21.6583C15.3704 21.6837 15.4591 21.6923 15.5468 21.6836C15.6346 21.6749 15.7197 21.649 15.7972 21.6076C15.8748 21.5661 15.9432 21.5099 15.9985 21.4421C16.0538 21.3744 16.0949 21.2964 16.1194 21.2129C16.1442 21.1293 16.1522 21.0417 16.1427 20.9551C16.1332 20.8684 16.1066 20.7845 16.0642 20.7081C15.9787 20.5537 15.8346 20.4391 15.6634 20.3896C15.4923 20.3401 15.3083 20.3597 15.1518 20.444C14.9953 20.5284 14.8792 20.6706 14.829 20.8394C14.78 21.0078 14.8005 21.1885 14.8862 21.3419C14.9719 21.4954 15.1157 21.6092 15.2861 21.6583Z" fill="white"/>
</g>
<g id="Group_2">
<path id="Vector_3" d="M13.7141 10.8526C13.8697 11.1387 13.764 11.4976 13.4728 11.6526C13.3323 11.727 13.1677 11.7433 13.015 11.698C12.8624 11.6527 12.7342 11.5495 12.6586 11.411C12.4991 11.1253 12.6092 10.7657 12.8996 10.6114C12.969 10.5742 13.0453 10.5509 13.1239 10.5429C13.2026 10.5349 13.282 10.5423 13.3577 10.5647C13.4335 10.5871 13.5039 10.6241 13.5651 10.6735C13.6263 10.7229 13.6769 10.7838 13.7141 10.8526ZM10.7508 15.4812C10.669 15.526 10.6083 15.6008 10.5819 15.6894C10.5555 15.7779 10.5654 15.8732 10.6096 15.9546C10.6313 15.9949 10.6611 16.0305 10.697 16.0593C10.733 16.0881 10.7744 16.1095 10.8188 16.1223C10.8633 16.135 10.9099 16.1389 10.9559 16.1336C11.0019 16.1283 11.0463 16.114 11.0866 16.0915C11.1279 16.0706 11.1645 16.0416 11.1942 16.0064C11.2239 15.9712 11.2461 15.9305 11.2595 15.8867C11.2729 15.8428 11.2772 15.7968 11.2722 15.7512C11.2671 15.7057 11.2529 15.6616 11.2302 15.6217C11.1852 15.5407 11.1096 15.4804 11.0198 15.4541C10.93 15.4278 10.8333 15.4376 10.7508 15.4812ZM10.6909 14.0582C10.596 14.1096 10.5255 14.1958 10.4946 14.2981C10.4638 14.4005 10.4751 14.5107 10.5262 14.6048C10.6367 14.8047 10.8848 14.8767 11.0854 14.7713C11.2837 14.6642 11.3595 14.4144 11.2522 14.2204C11.2264 14.1731 11.1913 14.1314 11.149 14.0976C11.1068 14.0638 11.0581 14.0386 11.0059 14.0236C10.9537 14.0085 10.899 14.0038 10.8449 14.0097C10.7908 14.0157 10.7385 14.0322 10.6909 14.0582ZM11.0651 12.6888C10.9557 12.7476 10.8741 12.8464 10.8379 12.9639C10.8018 13.0815 10.8139 13.2084 10.8716 13.3172C10.9973 13.5411 11.2825 13.6277 11.5098 13.5053C11.5645 13.4765 11.6128 13.4374 11.6521 13.3901C11.6913 13.3429 11.7207 13.2885 11.7386 13.23C11.7565 13.1715 11.7626 13.1101 11.7564 13.0493C11.7502 12.9885 11.7319 12.9295 11.7025 12.8757C11.6424 12.7682 11.5419 12.6884 11.4226 12.6534C11.3033 12.6184 11.1749 12.6311 11.0651 12.6888ZM11.8286 11.5043C11.7667 11.5366 11.712 11.5807 11.6677 11.6341C11.6233 11.6875 11.5901 11.749 11.57 11.8151C11.5499 11.8812 11.5434 11.9506 11.5507 12.0193C11.558 12.0879 11.5791 12.1544 11.6128 12.215C11.7524 12.4664 12.0691 12.5621 12.326 12.4247C12.3876 12.3928 12.4422 12.3492 12.4866 12.2963C12.531 12.2434 12.5643 12.1824 12.5846 12.1167C12.6049 12.051 12.6118 11.9821 12.6048 11.9137C12.5979 11.8454 12.5773 11.7791 12.5442 11.7188C12.5116 11.6581 12.4673 11.6045 12.4136 11.5608C12.36 11.5172 12.2981 11.4845 12.2316 11.4646C12.1651 11.4446 12.0952 11.4379 12.0261 11.4447C11.9569 11.4515 11.8898 11.4718 11.8286 11.5043ZM11.2442 16.8286C11.2099 16.8468 11.1796 16.8715 11.1551 16.9012C11.1305 16.931 11.1122 16.9653 11.1011 17.0021C11.09 17.0389 11.0864 17.0774 11.0905 17.1156C11.0946 17.1538 11.1063 17.1908 11.1249 17.2245C11.1628 17.2918 11.226 17.3419 11.3008 17.3639C11.3756 17.386 11.4562 17.3783 11.5254 17.3425C11.5936 17.3046 11.6441 17.2419 11.6659 17.1677C11.6878 17.0936 11.6793 17.0139 11.6423 16.9459C11.6047 16.8787 11.542 16.8288 11.4675 16.8069C11.3931 16.785 11.3129 16.7928 11.2442 16.8286ZM18.0628 11.9828C18.1083 12.0638 18.1841 12.1241 18.274 12.151C18.3639 12.1778 18.4608 12.169 18.5442 12.1264C18.6264 12.0815 18.6875 12.0065 18.7143 11.9176C18.741 11.8287 18.7314 11.733 18.6874 11.6511C18.6656 11.6107 18.6358 11.5751 18.5999 11.5462C18.564 11.5172 18.5226 11.4956 18.4782 11.4826C18.4338 11.4695 18.3872 11.4653 18.341 11.4701C18.2949 11.4749 18.2503 11.4886 18.2096 11.5106C18.1685 11.5321 18.1321 11.5613 18.1025 11.5967C18.0729 11.632 18.0506 11.6728 18.037 11.7167C18.0233 11.7605 18.0186 11.8066 18.023 11.8523C18.0275 11.8979 18.041 11.9423 18.0628 11.9828ZM16.8649 11.2308C16.973 11.4283 17.2275 11.5004 17.4214 11.3929C17.626 11.2859 17.699 11.0403 17.5897 10.8436C17.5383 10.7491 17.4511 10.6786 17.3471 10.6474C17.2432 10.6161 17.1309 10.6267 17.0349 10.6767C16.9385 10.7286 16.8667 10.8158 16.8349 10.9194C16.8032 11.0231 16.8139 11.1349 16.8649 11.2308ZM15.4808 10.8648C15.5096 10.9183 15.549 10.9656 15.5965 11.0039C15.644 11.0423 15.6988 11.071 15.7577 11.0883C15.8165 11.1056 15.8783 11.1112 15.9393 11.1048C16.0004 11.0984 16.0596 11.0801 16.1134 11.051C16.1681 11.0223 16.2164 10.9834 16.2558 10.9362C16.2951 10.8891 16.3246 10.8348 16.3426 10.7764C16.3606 10.718 16.3667 10.6567 16.3605 10.5959C16.3544 10.5352 16.3362 10.4763 16.3069 10.4225C16.2778 10.3688 16.2382 10.3213 16.1903 10.2828C16.1425 10.2444 16.0873 10.2157 16.0281 10.1984C15.9689 10.1812 15.9068 10.1757 15.8454 10.1824C15.7841 10.189 15.7247 10.2076 15.6707 10.2372C15.6163 10.266 15.5683 10.3051 15.5294 10.3523C15.4904 10.3995 15.4613 10.4538 15.4436 10.5121C15.426 10.5704 15.4202 10.6316 15.4266 10.6921C15.4329 10.7526 15.4514 10.8113 15.4808 10.8648ZM14.0356 10.9211C14.0684 10.9818 14.1131 11.0355 14.167 11.0791C14.2209 11.1227 14.2829 11.1555 14.3497 11.1754C14.4164 11.1954 14.4864 11.2022 14.5558 11.1954C14.6252 11.1886 14.6925 11.1684 14.754 11.136C14.877 11.069 14.9684 10.9568 15.0082 10.8239C15.0481 10.691 15.0333 10.5479 14.967 10.4257C14.8981 10.3081 14.7855 10.2217 14.653 10.1848C14.5206 10.1478 14.3788 10.1632 14.2577 10.2276C14.1365 10.292 14.0456 10.4005 14.0041 10.5299C13.9627 10.6594 13.974 10.7997 14.0356 10.9211ZM18.9627 13.0481C19.0385 13.1893 19.218 13.2405 19.3568 13.1649C19.3909 13.1474 19.4212 13.1234 19.4458 13.0942C19.4704 13.065 19.4888 13.0312 19.5 12.9949C19.5112 12.9585 19.5149 12.9204 19.5109 12.8826C19.507 12.8448 19.4954 12.8082 19.4769 12.775C19.44 12.7067 19.3775 12.6555 19.3027 12.6324C19.2279 12.6092 19.1469 12.6161 19.0772 12.6514C18.9403 12.7297 18.8833 12.9099 18.9627 13.0481ZM17.9455 18.5841C17.9085 18.5149 17.8578 18.4537 17.7966 18.404C17.7353 18.3544 17.6646 18.3173 17.5886 18.2948C17.5127 18.2724 17.4329 18.2652 17.3541 18.2735C17.2752 18.2818 17.1988 18.3055 17.1294 18.3432C17.0599 18.3798 16.9985 18.4297 16.9488 18.4898C16.899 18.55 16.8618 18.6194 16.8395 18.6938C16.8171 18.7683 16.8099 18.8464 16.8184 18.9236C16.8269 19.0009 16.8508 19.0756 16.8889 19.1437C17.0468 19.4301 17.4114 19.5348 17.7034 19.3837C17.9934 19.2255 18.1015 18.8647 17.9455 18.5841ZM12.5382 18.0103C12.4932 17.93 12.418 17.8704 12.3289 17.8442C12.2397 17.818 12.1437 17.8273 12.0615 17.8702C12.0208 17.8917 11.9847 17.921 11.9555 17.9563C11.9262 17.9915 11.9043 18.0322 11.891 18.0758C11.8777 18.1195 11.8733 18.1653 11.878 18.2106C11.8826 18.256 11.8963 18.3 11.9183 18.3401C11.9398 18.3806 11.9693 18.4165 12.0051 18.4456C12.0409 18.4746 12.0823 18.4963 12.1268 18.5093C12.1712 18.5223 12.2179 18.5263 12.2639 18.5212C12.31 18.5161 12.3546 18.5018 12.395 18.4794C12.4356 18.4579 12.4716 18.4287 12.5008 18.3935C12.5301 18.3583 12.5519 18.3178 12.5653 18.2742C12.5786 18.2306 12.583 18.1849 12.5784 18.1396C12.5737 18.0943 12.5601 18.0504 12.5382 18.0103ZM13.7376 18.7627C13.6855 18.6686 13.5977 18.5986 13.4934 18.5681C13.3891 18.5377 13.2769 18.5492 13.1812 18.6002C13.1332 18.625 13.0908 18.6591 13.0564 18.7003C13.0219 18.7415 12.9962 18.7891 12.9807 18.8403C12.9652 18.8915 12.9603 18.9452 12.9661 18.9983C12.972 19.0515 12.9885 19.1029 13.0148 19.1496C13.1186 19.3475 13.3703 19.4231 13.5697 19.3168C13.6656 19.2645 13.7369 19.1772 13.7683 19.0736C13.7997 18.97 13.7887 18.8584 13.7376 18.7627ZM15.125 19.1287C15.0041 18.904 14.7157 18.8241 14.4844 18.9406C14.3752 18.9998 14.2942 19.0991 14.2586 19.2168C14.2231 19.3346 14.236 19.4614 14.2945 19.5698C14.4197 19.7969 14.7049 19.8807 14.9331 19.7595C14.9881 19.7309 15.0367 19.6918 15.0762 19.6445C15.1157 19.5972 15.1453 19.5425 15.1631 19.4838C15.181 19.4251 15.1868 19.3634 15.1803 19.3025C15.1737 19.2415 15.1549 19.1824 15.125 19.1287ZM16.5682 19.0716C16.501 18.9499 16.3877 18.8592 16.253 18.8196C16.1183 18.7799 15.9732 18.7944 15.8494 18.8599C15.5909 18.9949 15.5011 19.3109 15.6415 19.5679C15.6737 19.6284 15.7178 19.682 15.7713 19.7254C15.8248 19.7688 15.8866 19.8012 15.953 19.8207C16.0194 19.8402 16.0891 19.8463 16.158 19.8388C16.2269 19.8313 16.2935 19.8102 16.354 19.7768C16.6132 19.643 16.7054 19.3239 16.5682 19.0716ZM19.847 14.5171C20.0205 14.4187 20.0868 14.2062 19.9962 14.0397C19.9742 13.9996 19.9444 13.9641 19.9084 13.9354C19.8725 13.9066 19.8312 13.8851 19.7869 13.8721C19.7425 13.8591 19.696 13.8548 19.65 13.8596C19.604 13.8643 19.5594 13.8779 19.5187 13.8996C19.4774 13.9209 19.4407 13.9502 19.411 13.9856C19.3812 14.0211 19.359 14.062 19.3455 14.1061C19.3321 14.1502 19.3277 14.1965 19.3326 14.2423C19.3376 14.288 19.3518 14.3324 19.3743 14.3726C19.4183 14.453 19.4924 14.5131 19.5808 14.5401C19.6692 14.5671 19.7647 14.5588 19.847 14.5171ZM19.9132 15.9377C20.1135 15.8302 20.1853 15.5835 20.0764 15.3875C20.051 15.3407 20.0164 15.2992 19.9747 15.2655C19.933 15.2319 19.885 15.2067 19.8334 15.1914C19.7818 15.1761 19.7277 15.171 19.6741 15.1765C19.6205 15.1819 19.5685 15.1977 19.5211 15.223C19.4252 15.2752 19.3538 15.3622 19.3222 15.4657C19.2906 15.5691 19.3013 15.6806 19.352 15.7763C19.4581 15.9703 19.7158 16.0419 19.9132 15.9377ZM19.5363 17.3059C19.77 17.182 19.8514 16.9034 19.7321 16.6755C19.6725 16.5672 19.5719 16.4866 19.4522 16.4513C19.3326 16.416 19.2036 16.4288 19.0935 16.487C18.9836 16.5462 18.9017 16.6457 18.8657 16.764C18.8297 16.8824 18.8425 17.0099 18.9013 17.119C18.961 17.2262 19.0611 17.306 19.1799 17.3409C19.2988 17.3759 19.4268 17.3633 19.5363 17.3059ZM18.778 18.4853C19.0349 18.3539 19.1298 18.0316 18.9906 17.7801C18.8494 17.5275 18.5303 17.4295 18.2746 17.5688C18.2134 17.6014 18.1594 17.6455 18.1155 17.6987C18.0717 17.7519 18.0389 17.8131 18.0191 17.8789C17.9992 17.9446 17.9927 18.0135 17.9998 18.0817C18.007 18.1499 18.0277 18.216 18.0608 18.2763C18.0935 18.337 18.1382 18.3906 18.1921 18.434C18.246 18.4774 18.3082 18.5098 18.375 18.5292C18.4417 18.5487 18.5118 18.5548 18.581 18.5473C18.6502 18.5397 18.7171 18.5187 18.778 18.4853Z" fill="white"/>
</g>
<g id="Group_3">
<path id="Vector_4" d="M29.041 16.5172C28.6331 16.5167 28.2421 16.3564 27.954 16.0715C27.6659 15.7867 27.5042 15.4006 27.5045 14.9982C27.5042 14.7989 27.5438 14.6015 27.621 14.4173C27.6982 14.2332 27.8116 14.0659 27.9546 13.9251C28.0975 13.7843 28.2673 13.6727 28.4541 13.5968C28.6408 13.5209 28.841 13.4821 29.043 13.4828C29.245 13.4824 29.4451 13.5214 29.6318 13.5975C29.8186 13.6736 29.9882 13.7853 30.131 13.9263C30.2738 14.0672 30.3871 14.2346 30.4642 14.4188C30.5413 14.603 30.5807 14.8005 30.5803 14.9998C30.5801 15.4024 30.4178 15.7884 30.1292 16.0729C29.8405 16.3575 29.4491 16.5173 29.041 16.5172ZM23.0026 3.43033C23.0261 3.32284 23.0278 3.21185 23.0076 3.10372C22.9874 2.99559 22.9457 2.89247 22.885 2.80028C22.8243 2.70808 22.7457 2.62864 22.6538 2.56651C22.5618 2.50438 22.4583 2.4608 22.3493 2.43826C22.2403 2.41488 22.1278 2.41297 22.0181 2.43264C21.9084 2.45232 21.8038 2.49319 21.7102 2.55292C21.6166 2.61264 21.5359 2.69003 21.4727 2.78064C21.4095 2.87125 21.3651 2.97328 21.3421 3.08088C21.2951 3.29812 21.3375 3.52487 21.46 3.71125C21.5825 3.89763 21.775 4.02837 21.9952 4.07471C22.2154 4.12105 22.4453 4.07919 22.6342 3.95835C22.8231 3.8375 22.9557 3.64757 23.0026 3.43033ZM26.0334 5.57107C26.0547 5.43955 26.0495 5.30518 26.0181 5.17565C25.9867 5.04612 25.9297 4.92397 25.8504 4.81621C25.771 4.70845 25.6709 4.61718 25.5558 4.54765C25.4406 4.47811 25.3127 4.43166 25.1794 4.41097C24.9129 4.37538 24.6429 4.44409 24.4271 4.6024C24.2114 4.76071 24.067 4.99604 24.0249 5.25805C23.9827 5.52005 24.0462 5.78791 24.2018 6.00431C24.3573 6.22071 24.5925 6.36846 24.8571 6.41595C25.1266 6.45741 25.4017 6.39175 25.6222 6.23337C25.8428 6.075 25.9906 5.83682 26.0334 5.57107ZM29.9896 11.5624C29.9995 11.3795 29.9728 11.1965 29.9109 11.0238C29.849 10.8512 29.7532 10.6923 29.629 10.5562C29.5047 10.4201 29.3545 10.3096 29.1868 10.2309C29.0192 10.1522 28.8375 10.107 28.6521 10.0977C28.4667 10.0876 28.2811 10.1138 28.1059 10.1747C27.9307 10.2355 27.7695 10.33 27.6315 10.4525C27.4934 10.575 27.3812 10.7233 27.3014 10.8887C27.2215 11.0541 27.1756 11.2334 27.1662 11.4164C27.1548 11.6002 27.1804 11.7845 27.2415 11.9585C27.3027 12.1326 27.3981 12.2929 27.5225 12.4304C27.6468 12.5678 27.7974 12.6796 27.9658 12.7593C28.1341 12.8389 28.3168 12.8849 28.5032 12.8946C28.6897 12.9042 28.8762 12.8773 29.0521 12.8154C29.228 12.7536 29.3897 12.6579 29.5278 12.5341C29.666 12.4102 29.778 12.2606 29.8572 12.0938C29.9365 11.927 29.9815 11.7464 29.9896 11.5624ZM15.918 1.44188C15.918 1.10384 15.6407 0.833496 15.2993 0.833496C15.1395 0.839166 14.9881 0.905787 14.8771 1.01933C14.766 1.13288 14.704 1.2845 14.704 1.44227C14.704 1.60004 14.766 1.75166 14.8771 1.8652C14.9881 1.97875 15.1395 2.04537 15.2993 2.05104C15.6407 2.05104 15.918 1.77912 15.918 1.44188ZM21.9962 25.925C21.8871 25.9479 21.7836 25.9918 21.6916 26.0541C21.5997 26.1165 21.5211 26.1961 21.4603 26.2884C21.3376 26.4749 21.295 26.7018 21.3419 26.9192C21.3887 27.1367 21.5212 27.3269 21.7102 27.4479C21.8992 27.569 22.1292 27.6111 22.3497 27.5648C22.5701 27.5186 22.7628 27.3879 22.8856 27.2014C23.0083 27.015 23.0509 26.788 23.004 26.5706C22.9572 26.3531 22.8247 26.163 22.6357 26.0419C22.4467 25.9208 22.2167 25.8788 21.9962 25.925ZM24.8571 23.5852C24.7226 23.6047 24.5935 23.6504 24.4771 23.7195C24.3606 23.7886 24.2592 23.8798 24.1787 23.9878C24.0982 24.0958 24.0402 24.2185 24.0081 24.3487C23.9759 24.4789 23.9702 24.6142 23.9914 24.7466C24.0125 24.879 24.0601 25.006 24.1312 25.1202C24.2024 25.2344 24.2958 25.3335 24.406 25.4119C24.5163 25.4902 24.6412 25.5463 24.7735 25.5767C24.9058 25.6072 25.043 25.6115 25.177 25.5894C25.4443 25.5452 25.6831 25.3988 25.8415 25.1818C26 24.9649 26.0652 24.6951 26.023 24.431C25.9809 24.1669 25.8347 23.9299 25.6164 23.7715C25.3981 23.6131 25.1252 23.5461 24.8571 23.5852ZM27.0665 20.5212C26.7285 20.5563 26.4185 20.7224 26.2046 20.983C25.9907 21.2436 25.8905 21.5773 25.9261 21.9107C25.9616 22.2442 26.13 22.5501 26.3941 22.7611C26.6583 22.972 26.9966 23.0709 27.3346 23.0358C27.5021 23.0188 27.6645 22.9693 27.8126 22.8902C27.9607 22.811 28.0915 22.7039 28.1975 22.5748C28.3035 22.4457 28.3826 22.2972 28.4303 22.1379C28.478 21.9785 28.4933 21.8115 28.4754 21.6463C28.4397 21.3128 28.2712 21.007 28.0071 20.796C27.7429 20.585 27.4046 20.4862 27.0665 20.5212ZM28.5017 17.1169C28.1278 17.137 27.7773 17.3026 27.5269 17.5773C27.2766 17.852 27.1469 18.2135 27.1662 18.5824C27.1756 18.7654 27.2215 18.9447 27.3013 19.1102C27.3811 19.2756 27.4933 19.4238 27.6313 19.5464C27.7694 19.6689 27.9307 19.7633 28.1058 19.8242C28.281 19.8851 28.4667 19.9112 28.6521 19.901C28.8375 19.8917 29.0191 19.8464 29.1867 19.7677C29.3543 19.689 29.5045 19.5785 29.6287 19.4424C29.7529 19.3064 29.8487 19.1475 29.9105 18.9748C29.9724 18.8022 29.9991 18.6192 29.9892 18.4364C29.9689 18.067 29.8009 17.7206 29.522 17.4732C29.2431 17.2258 28.8762 17.0977 28.5017 17.1169ZM15.2993 27.9489C15.1383 27.9529 14.9853 28.0189 14.8728 28.1326C14.7604 28.2464 14.6975 28.399 14.6975 28.5579C14.6975 28.7167 14.7604 28.8693 14.8728 28.9831C14.9853 29.0969 15.1383 29.1628 15.2993 29.1668C15.463 29.1668 15.62 29.1027 15.7358 28.9885C15.8515 28.8743 15.9166 28.7194 15.9166 28.5579C15.9166 28.3964 15.8515 28.2415 15.7358 28.1273C15.62 28.0131 15.463 27.9489 15.2993 27.9489ZM1.55677 16.5172C1.9645 16.5163 2.35523 16.3559 2.64316 16.0711C2.9311 15.7863 3.0927 15.4004 3.09249 14.9982C3.09281 14.7991 3.0533 14.602 2.97624 14.418C2.89918 14.234 2.78608 14.0668 2.64341 13.9261C2.50075 13.7853 2.33133 13.6737 2.14487 13.5976C1.9584 13.5215 1.75855 13.4825 1.55677 13.4828C1.35465 13.4825 1.15446 13.5216 0.967666 13.5977C0.780867 13.6739 0.611124 13.7856 0.468149 13.9265C0.325174 14.0675 0.211774 14.2349 0.134439 14.4191C0.0571037 14.6033 0.0173512 14.8008 0.0174563 15.0002C0.0183007 15.4025 0.1808 15.7881 0.46934 16.0725C0.757879 16.3569 1.14892 16.5168 1.55677 16.5172ZM8.60234 4.07412C8.82265 4.02794 9.01535 3.89731 9.13803 3.71096C9.26071 3.52462 9.30333 3.29783 9.25652 3.08049C9.23345 2.97291 9.18908 2.87089 9.12594 2.78028C9.0628 2.68966 8.98214 2.61225 8.8886 2.55246C8.79505 2.49268 8.69046 2.45172 8.58083 2.43192C8.47119 2.41212 8.35867 2.41387 8.24973 2.43708C8.14077 2.45993 8.03744 2.50372 7.94564 2.56595C7.85384 2.62819 7.77536 2.70766 7.71469 2.79981C7.65401 2.89197 7.61234 2.99502 7.59203 3.10306C7.57173 3.21111 7.57319 3.32205 7.59635 3.42954C7.6195 3.53703 7.66389 3.63897 7.72697 3.72953C7.79006 3.8201 7.87061 3.89752 7.96402 3.95737C8.05744 4.01723 8.16189 4.05835 8.27141 4.07838C8.38094 4.09841 8.49339 4.09696 8.60234 4.07412ZM5.74231 6.41516C6.01194 6.37288 6.25354 6.22675 6.41404 6.00886C6.57454 5.79098 6.64082 5.51916 6.59833 5.2531C6.57721 5.12141 6.52998 4.99512 6.45932 4.88146C6.38866 4.7678 6.29596 4.66902 6.18655 4.59075C6.07713 4.51249 5.95314 4.45629 5.82167 4.42537C5.6902 4.39446 5.55385 4.38943 5.42041 4.41058C5.28708 4.43132 5.15921 4.47779 5.04411 4.54735C4.92902 4.61691 4.82896 4.70818 4.74967 4.81594C4.67038 4.9237 4.61341 5.04583 4.58203 5.17534C4.55065 5.30484 4.54547 5.43919 4.56678 5.57067C4.60917 5.83643 4.75683 6.0747 4.97728 6.23307C5.19773 6.39144 5.47291 6.45694 5.74231 6.41516ZM3.53127 9.47831C3.86324 9.4359 4.16525 9.26712 4.37279 9.00801C4.58033 8.74889 4.67694 8.42 4.642 8.09156C4.60706 7.76312 4.44333 7.46119 4.18578 7.25023C3.92823 7.03928 3.59728 6.93603 3.26361 6.96255C3.09603 6.97962 2.93351 7.02919 2.78539 7.10841C2.63727 7.18762 2.50648 7.29492 2.40051 7.42414C2.29455 7.55336 2.2155 7.70196 2.16791 7.8614C2.12032 8.02084 2.10512 8.18799 2.12319 8.35324C2.14066 8.51837 2.19095 8.67848 2.27119 8.82441C2.35144 8.97035 2.46005 9.09924 2.59082 9.20374C2.7216 9.30823 2.87197 9.38626 3.03334 9.43337C3.19471 9.48049 3.36391 9.49576 3.53127 9.47831ZM2.09607 12.8822C2.47046 12.8626 2.82163 12.6972 3.07242 12.4222C3.32321 12.1473 3.4531 11.7854 3.43354 11.416C3.42411 11.2329 3.37808 11.0533 3.29811 10.8878C3.21814 10.7223 3.10579 10.5739 2.96753 10.4514C2.82927 10.3288 2.66782 10.2344 2.49246 10.1735C2.3171 10.1127 2.13128 10.0867 1.94569 10.0969C1.76034 10.1064 1.5787 10.1518 1.41117 10.2306C1.24363 10.3094 1.09347 10.4199 0.969291 10.556C0.845108 10.6921 0.749334 10.851 0.687445 11.0236C0.625556 11.1962 0.598767 11.3792 0.60861 11.562C0.628504 11.9316 0.796364 12.2783 1.07529 12.5259C1.35422 12.7735 1.72138 12.9017 2.09607 12.8822ZM7.59635 26.5696C7.57317 26.6772 7.57169 26.7882 7.592 26.8963C7.61231 27.0045 7.65401 27.1076 7.71472 27.1998C7.77543 27.292 7.85396 27.3716 7.94582 27.4339C8.03769 27.4962 8.14109 27.54 8.25012 27.5629C8.35916 27.5857 8.47169 27.5872 8.5813 27.5671C8.6909 27.5471 8.79543 27.506 8.88892 27.4461C8.98241 27.3862 9.06303 27.3087 9.12617 27.2181C9.18931 27.1274 9.23374 27.0254 9.25692 26.9179C9.3035 26.7006 9.26078 26.474 9.13812 26.2877C9.01547 26.1015 8.82292 25.9709 8.60274 25.9246C8.38263 25.879 8.15316 25.9212 7.96455 26.0421C7.77594 26.163 7.64355 26.3527 7.59635 26.5696ZM4.56718 24.4281C4.54564 24.5596 4.55066 24.694 4.58195 24.8237C4.61324 24.9533 4.67018 25.0755 4.7495 25.1834C4.82883 25.2912 4.92897 25.3825 5.04417 25.452C5.15937 25.5216 5.28737 25.568 5.42081 25.5886C5.6216 25.6201 5.82737 25.5922 6.01208 25.5083C6.19679 25.4245 6.35215 25.2885 6.4585 25.1175C6.56486 24.9466 6.61743 24.7483 6.60958 24.5479C6.60172 24.3475 6.53379 24.1538 6.41437 23.9915C6.29495 23.8291 6.12941 23.7054 5.93869 23.6358C5.74797 23.5663 5.54063 23.5542 5.3429 23.6009C5.14518 23.6476 4.96594 23.7512 4.82786 23.8984C4.68978 24.0456 4.59906 24.23 4.56718 24.4281ZM2.12319 21.6471C2.10518 21.8122 2.12041 21.9792 2.16802 22.1385C2.21563 22.2978 2.29467 22.4463 2.4006 22.5754C2.50653 22.7044 2.63727 22.8116 2.7853 22.8907C2.93334 22.9698 3.09575 23.0192 3.26322 23.0362C3.43062 23.0539 3.59992 23.0388 3.7614 22.9918C3.92288 22.9448 4.07337 22.8668 4.20425 22.7623C4.33513 22.6578 4.44383 22.5289 4.52411 22.3829C4.60439 22.2369 4.65468 22.0767 4.67209 21.9115C4.68967 21.7463 4.67409 21.5794 4.62625 21.4201C4.57841 21.2609 4.49925 21.1125 4.39328 20.9834C4.2873 20.8543 4.1566 20.7471 4.00863 20.6679C3.86066 20.5887 3.69831 20.539 3.53087 20.5216C3.3635 20.5041 3.19427 20.5194 3.03288 20.5665C2.87149 20.6136 2.72111 20.6917 2.59034 20.7962C2.45958 20.9008 2.35101 21.0297 2.27085 21.1758C2.19069 21.3218 2.14051 21.4819 2.12319 21.6471ZM0.60861 18.436C0.598662 18.6188 0.62538 18.8018 0.687234 18.9744C0.749088 19.1471 0.844862 19.306 0.969068 19.442C1.09328 19.5781 1.24347 19.6886 1.41106 19.7673C1.57864 19.846 1.76032 19.8913 1.94569 19.9007C2.13128 19.9111 2.31714 19.8851 2.49254 19.8244C2.66795 19.7637 2.82944 19.6693 2.96773 19.5467C3.10602 19.4242 3.21837 19.2758 3.29831 19.1102C3.37826 18.9447 3.42421 18.7651 3.43354 18.582C3.45278 18.2128 3.32275 17.8511 3.07201 17.5764C2.82126 17.3016 2.47027 17.1362 2.09607 17.1165C1.72164 17.0976 1.35489 17.2259 1.07611 17.4732C0.797326 17.7205 0.629225 18.0667 0.60861 18.436ZM18.6843 27.4641C18.5144 27.5092 18.3696 27.6189 18.2816 27.7691C18.1936 27.9194 18.1695 28.098 18.2148 28.2657C18.2606 28.4331 18.3718 28.5758 18.5242 28.6624C18.6766 28.7489 18.8575 28.7723 19.0273 28.7273C19.1116 28.7053 19.1907 28.6672 19.26 28.615C19.3293 28.5629 19.3875 28.4977 19.4312 28.4233C19.475 28.3489 19.5034 28.2667 19.5148 28.1815C19.5263 28.0962 19.5206 28.0095 19.498 27.9265C19.4522 27.7587 19.3408 27.6158 19.1882 27.5291C19.0356 27.4423 18.8543 27.419 18.6843 27.4641ZM11.9135 27.4641C11.7452 27.4234 11.5674 27.4495 11.4182 27.5366C11.2691 27.6237 11.1605 27.765 11.1156 27.9301C11.0708 28.0953 11.0933 28.2712 11.1783 28.4202C11.2633 28.5692 11.4041 28.6794 11.5705 28.7273C11.6552 28.7516 11.7441 28.7591 11.8318 28.7491C11.9195 28.7392 12.0043 28.712 12.0812 28.6693C12.1581 28.6266 12.2256 28.5691 12.2797 28.5003C12.3339 28.4315 12.3735 28.3527 12.3964 28.2686C12.4192 28.1845 12.4248 28.0967 12.4128 28.0104C12.4008 27.9242 12.3714 27.8411 12.3265 27.7662C12.2815 27.6912 12.2218 27.6259 12.1509 27.574C12.08 27.5222 11.9993 27.4848 11.9135 27.4641ZM19.4984 2.07347C19.5209 1.99037 19.5265 1.90372 19.515 1.81847C19.5034 1.73323 19.475 1.65106 19.4312 1.57667C19.3875 1.50229 19.3293 1.43715 19.2599 1.38498C19.1906 1.33282 19.1116 1.29465 19.0273 1.27266C18.8604 1.23607 18.6855 1.2645 18.5393 1.35201C18.3931 1.43952 18.2868 1.57936 18.2426 1.74233C18.1984 1.90531 18.2197 2.07883 18.3021 2.22669C18.3844 2.37454 18.5215 2.4853 18.6847 2.53586C18.7689 2.5583 18.8567 2.56413 18.9432 2.55303C19.0297 2.54193 19.1131 2.51411 19.1887 2.47116C19.2643 2.42821 19.3306 2.37098 19.3837 2.30274C19.4368 2.2345 19.4758 2.15659 19.4984 2.07347ZM12.3842 1.73387C12.3616 1.6508 12.3226 1.57295 12.2694 1.50479C12.2163 1.43662 12.15 1.37948 12.0744 1.33663C11.9988 1.29379 11.9154 1.26608 11.8289 1.25511C11.7424 1.24413 11.6546 1.25009 11.5705 1.27266C11.4864 1.29469 11.4075 1.33285 11.3384 1.38498C11.2693 1.4371 11.2113 1.50216 11.1676 1.57643C11.124 1.6507 11.0957 1.73273 11.0843 1.81781C11.0728 1.9029 11.0785 1.98937 11.101 2.07229C11.1235 2.15542 11.1624 2.23335 11.2155 2.30164C11.2685 2.36993 11.3347 2.42725 11.4102 2.47031C11.4857 2.51338 11.5691 2.54135 11.6555 2.55263C11.742 2.56391 11.8299 2.55828 11.9141 2.53605C11.9984 2.51383 12.0774 2.47546 12.1466 2.42312C12.2158 2.37078 12.2739 2.3055 12.3176 2.23101C12.3612 2.15652 12.3896 2.07428 12.401 1.98898C12.4124 1.90368 12.4067 1.81699 12.3842 1.73387Z" fill="white"/>
</g>
<g id="Group_4">
<path id="Vector_5" d="M25.6277 11.8964C25.335 12.0205 25.0043 12.0249 24.7084 11.9086C24.4124 11.7923 24.1753 11.5649 24.0493 11.2762C23.9867 11.1333 23.9534 10.9796 23.9511 10.824C23.9489 10.6683 23.9778 10.5138 24.0362 10.3692C24.0946 10.2245 24.1813 10.0927 24.2914 9.98124C24.4016 9.86975 24.5329 9.7808 24.6779 9.71948C24.9691 9.603 25.295 9.60371 25.5857 9.72145C25.8764 9.83918 26.1087 10.0646 26.2329 10.3493C26.3572 10.6341 26.3634 10.9555 26.2502 11.2447C26.1371 11.5339 25.9136 11.7678 25.6277 11.8964ZM17.1956 4.35621C17.1788 4.27192 17.1454 4.19173 17.0971 4.12024C17.0488 4.04876 16.9867 3.98741 16.9143 3.93972C16.8419 3.89202 16.7606 3.85893 16.6752 3.84234C16.5898 3.82575 16.5019 3.826 16.4165 3.84306C16.331 3.85947 16.2497 3.89243 16.1772 3.94002C16.1046 3.98761 16.0424 4.0489 15.994 4.12035C15.9456 4.1918 15.912 4.27199 15.8952 4.35631C15.8784 4.44063 15.8786 4.52739 15.896 4.61161C15.9354 4.77664 16.0382 4.92013 16.1827 5.01183C16.3273 5.10354 16.5023 5.13628 16.6708 5.10315C16.8394 5.07003 16.9883 4.97363 17.0862 4.83429C17.1841 4.69494 17.2233 4.52353 17.1956 4.35621ZM20.0401 4.96656C20.0142 4.86571 19.9684 4.77091 19.9053 4.68758C19.8421 4.60425 19.763 4.53404 19.6723 4.48098C19.5816 4.42792 19.4812 4.39307 19.3768 4.37841C19.2724 4.36375 19.1661 4.36958 19.064 4.39556C18.9617 4.42095 18.8654 4.46605 18.7808 4.52827C18.6963 4.59048 18.625 4.66859 18.5711 4.75808C18.5173 4.84758 18.4819 4.9467 18.467 5.04975C18.4521 5.15279 18.458 5.25772 18.4844 5.3585C18.5105 5.45927 18.5564 5.55399 18.6196 5.63724C18.6828 5.72049 18.762 5.79065 18.8527 5.84371C18.9433 5.89677 19.0437 5.93169 19.1481 5.94648C19.2524 5.96126 19.3587 5.95563 19.4609 5.92989C19.563 5.90416 19.659 5.85883 19.7434 5.79649C19.8278 5.73415 19.8989 5.65602 19.9527 5.56656C20.0065 5.47711 20.0419 5.37808 20.0569 5.27513C20.0719 5.17218 20.0661 5.06733 20.0401 4.96656ZM22.6627 6.21519C22.6239 6.09131 22.5606 5.97623 22.4765 5.87655C22.3924 5.77688 22.2892 5.69458 22.1728 5.63439C22.0563 5.5742 21.929 5.5373 21.7981 5.52581C21.6671 5.51433 21.5352 5.52848 21.4098 5.56746C21.2842 5.60585 21.1675 5.66832 21.0665 5.7513C20.9654 5.83427 20.8819 5.93611 20.8208 6.05097C20.7597 6.16584 20.7221 6.29148 20.7104 6.42068C20.6986 6.54988 20.7127 6.68011 20.7521 6.8039C20.8365 7.04739 21.014 7.24876 21.2466 7.36513C21.4793 7.4815 21.7488 7.50369 21.9978 7.42697C22.2469 7.35025 22.4557 7.18068 22.5799 6.95435C22.704 6.72803 22.7338 6.46282 22.6627 6.21519ZM24.7545 8.0545C24.7044 7.92036 24.6279 7.7973 24.5294 7.69236C24.431 7.58743 24.3125 7.50269 24.1809 7.443C24.0492 7.3833 23.9068 7.34983 23.762 7.34449C23.6172 7.33915 23.4727 7.36205 23.3369 7.41188C23.2007 7.46111 23.0757 7.53641 22.9691 7.63345C22.8626 7.73048 22.7765 7.84735 22.7158 7.97731C22.6552 8.10728 22.6212 8.2478 22.6158 8.39077C22.6104 8.53375 22.6336 8.67638 22.6843 8.81045C22.7859 9.08128 22.9924 9.3012 23.2584 9.42183C23.5244 9.54245 23.828 9.5539 24.1025 9.45365C24.3771 9.35341 24.6 9.14968 24.7223 8.88729C24.8445 8.6249 24.8561 8.32533 24.7545 8.0545ZM11.4939 5.0917C11.4688 5.03424 11.4324 4.98224 11.3869 4.93866C11.3414 4.89509 11.2877 4.8608 11.2287 4.83777C11.1698 4.81474 11.1068 4.80341 11.0434 4.80444C10.98 4.80548 10.9174 4.81884 10.8592 4.84378C10.7419 4.89372 10.6495 4.98759 10.6023 5.10475C10.5552 5.22191 10.5571 5.35275 10.6077 5.46849C10.6583 5.58424 10.7535 5.6754 10.8723 5.72193C10.991 5.76846 11.1236 5.76655 11.241 5.71661C11.4855 5.61272 11.5996 5.33253 11.4939 5.0917ZM23.5251 20.7903C23.386 20.8924 23.293 21.0441 23.2658 21.213C23.2387 21.3819 23.2797 21.5546 23.38 21.6941C23.4803 21.8336 23.632 21.9288 23.8025 21.9594C23.9731 21.9899 24.149 21.9534 24.2926 21.8576C24.3637 21.8078 24.4241 21.7448 24.4704 21.672C24.5167 21.5992 24.548 21.5181 24.5625 21.4334C24.5769 21.3487 24.5743 21.2619 24.5548 21.1782C24.5353 21.0945 24.4992 21.0153 24.4486 20.9454C24.3983 20.8754 24.3345 20.8158 24.2609 20.7701C24.1872 20.7244 24.1052 20.6935 24.0194 20.6791C23.9337 20.6647 23.8459 20.6671 23.7611 20.6862C23.6763 20.7053 23.5961 20.7407 23.5251 20.7903ZM24.8431 18.2395C24.7518 18.2941 24.6724 18.366 24.6097 18.4512C24.5469 18.5363 24.502 18.633 24.4775 18.7355C24.453 18.8379 24.4495 18.9442 24.4672 19.048C24.4848 19.1519 24.5232 19.2512 24.5802 19.3402C24.6372 19.4292 24.7117 19.5061 24.7991 19.5664C24.8866 19.6267 24.9854 19.6692 25.0897 19.6914C25.1941 19.7136 25.3018 19.7151 25.4067 19.6957C25.5116 19.6764 25.6116 19.6366 25.7007 19.5787C25.8764 19.4646 25.9996 19.287 26.044 19.0842C26.0883 18.8813 26.0503 18.6694 25.9379 18.494C25.8256 18.3186 25.6479 18.1936 25.4432 18.1461C25.2385 18.0985 25.023 18.132 24.8431 18.2395ZM25.4665 15.3692C25.2351 15.4978 25.0649 15.7116 24.9932 15.9639C24.9214 16.2161 24.9541 16.4862 25.084 16.7147C25.1484 16.8276 25.2347 16.927 25.338 17.007C25.4414 17.087 25.5597 17.1461 25.6862 17.181C25.8128 17.2158 25.945 17.2257 26.0754 17.21C26.2058 17.1943 26.3318 17.1535 26.4462 17.0897C26.561 17.0266 26.662 16.9417 26.7435 16.8399C26.8249 16.7382 26.8852 16.6215 26.9208 16.4967C26.9563 16.3719 26.9666 16.2414 26.9508 16.1126C26.9351 15.9839 26.8938 15.8595 26.8291 15.7466C26.7649 15.6335 26.6787 15.5339 26.5754 15.4537C26.4721 15.3735 26.3538 15.3141 26.2272 15.2791C26.1006 15.244 25.9683 15.2339 25.8378 15.2494C25.7072 15.2649 25.5811 15.3056 25.4665 15.3692ZM25.4286 12.491C25.1669 12.6193 24.9674 12.8448 24.874 13.1179C24.7805 13.3911 24.8007 13.6897 24.93 13.9482C24.9941 14.0767 25.0833 14.1914 25.1924 14.2857C25.3015 14.38 25.4285 14.4521 25.566 14.4979C25.7035 14.5436 25.8488 14.5621 25.9936 14.5523C26.1383 14.5424 26.2797 14.5044 26.4095 14.4405C26.5395 14.3774 26.6556 14.2896 26.7511 14.182C26.8466 14.0745 26.9196 13.9494 26.966 13.814C27.0123 13.6785 27.031 13.5354 27.0211 13.3928C27.0112 13.2501 26.9728 13.1109 26.9081 12.9829C26.7779 12.7243 26.5489 12.5273 26.2715 12.4351C25.9941 12.3428 25.691 12.363 25.4286 12.491ZM19.358 24.2844C19.2998 24.3091 19.2472 24.3449 19.2031 24.3897C19.159 24.4345 19.1243 24.4874 19.1009 24.5454C19.0775 24.6034 19.066 24.6654 19.0669 24.7279C19.0678 24.7903 19.0812 24.852 19.1063 24.9093C19.1569 25.0251 19.2521 25.1163 19.3708 25.1629C19.4297 25.1859 19.4925 25.1973 19.5558 25.1964C19.6191 25.1955 19.6816 25.1823 19.7397 25.1576C19.9842 25.0537 20.0983 24.7739 19.993 24.5319C19.942 24.416 19.8465 24.3249 19.7274 24.2785C19.6083 24.2321 19.4754 24.2342 19.358 24.2844ZM5.92218 20.2803C6.21439 20.1554 6.44437 19.9211 6.56158 19.629C6.67879 19.3369 6.67363 19.0108 6.54724 18.7224C6.48506 18.5796 6.39494 18.4504 6.28205 18.342C6.16916 18.2337 6.03571 18.1484 5.88936 18.091C5.743 18.0336 5.5866 18.0053 5.42912 18.0076C5.27164 18.0099 5.11618 18.0429 4.97163 18.1046C4.8266 18.1659 4.69526 18.2548 4.58514 18.3663C4.47503 18.4778 4.3883 18.6097 4.32994 18.7543C4.27157 18.8989 4.24272 19.0535 4.24502 19.2091C4.24733 19.3648 4.28075 19.5184 4.34338 19.6613C4.46973 19.9498 4.70696 20.177 5.00297 20.2931C5.29898 20.4091 5.62958 20.4045 5.92218 20.2803ZM7.07337 9.20987C7.14434 9.16035 7.20472 9.09752 7.25107 9.02497C7.29742 8.95242 7.32882 8.87157 7.34349 8.78705C7.35816 8.70252 7.3558 8.61597 7.33656 8.53235C7.31732 8.44872 7.28156 8.36965 7.23133 8.29966C7.18137 8.22931 7.11778 8.16942 7.04423 8.12345C6.97068 8.07747 6.88863 8.04632 6.80282 8.0318C6.717 8.01727 6.62912 8.01966 6.54424 8.03882C6.45937 8.05798 6.37918 8.09354 6.3083 8.14343C6.23693 8.19286 6.17618 8.25575 6.12957 8.32846C6.08295 8.40116 6.05139 8.48226 6.03671 8.56706C6.02202 8.65186 6.02451 8.73869 6.04401 8.82254C6.06351 8.9064 6.09965 8.98561 6.15034 9.05561C6.25217 9.19661 6.40652 9.29202 6.57954 9.32094C6.75257 9.34986 6.93015 9.30991 7.07337 9.20987ZM5.75664 11.7603C5.84592 11.7046 5.9232 11.6321 5.98406 11.5469C6.04492 11.4617 6.08816 11.3655 6.11132 11.2639C6.13447 11.1622 6.13708 11.057 6.119 10.9543C6.10092 10.8517 6.0625 10.7535 6.00595 10.6655C5.89196 10.4881 5.71121 10.3627 5.50347 10.3168C5.29574 10.2709 5.07803 10.3083 4.89823 10.4207C4.71844 10.5332 4.59129 10.7115 4.54476 10.9164C4.49823 11.1214 4.53613 11.3362 4.65012 11.5135C4.76369 11.691 4.94407 11.8167 5.15158 11.863C5.3591 11.9092 5.57674 11.8723 5.75664 11.7603ZM5.13118 14.631C5.24967 14.5696 5.35447 14.4854 5.4394 14.3834C5.52433 14.2814 5.58765 14.1636 5.62562 14.037C5.6636 13.9104 5.67545 13.7776 5.66048 13.6464C5.64551 13.5152 5.60402 13.3883 5.53847 13.2732C5.47292 13.1581 5.38464 13.0571 5.27884 12.9763C5.17305 12.8954 5.0519 12.8363 4.92255 12.8025C4.7932 12.7686 4.65828 12.7607 4.52577 12.7792C4.39327 12.7977 4.26587 12.8422 4.15111 12.9101C3.92073 13.0388 3.75145 13.2524 3.68037 13.504C3.60928 13.7555 3.64219 14.0247 3.77187 14.2524C3.90156 14.4801 4.11744 14.6478 4.37223 14.7188C4.62702 14.7897 4.89994 14.7582 5.13118 14.631ZM5.16988 17.51C5.43213 17.3817 5.63199 17.1559 5.7255 16.8823C5.819 16.6086 5.7985 16.3095 5.66849 16.0508C5.60447 15.9223 5.51531 15.8075 5.40613 15.7131C5.29695 15.6187 5.16992 15.5466 5.03236 15.5009C4.89479 15.4552 4.74942 15.4367 4.60461 15.4467C4.4598 15.4567 4.31841 15.4948 4.18861 15.5589C4.05873 15.6222 3.94277 15.7102 3.84737 15.8178C3.75197 15.9253 3.67899 16.0504 3.63261 16.1858C3.58623 16.3212 3.56735 16.4643 3.57706 16.6069C3.58677 16.7495 3.62488 16.8888 3.6892 17.0169C3.81941 17.2758 4.04849 17.4732 4.32611 17.5657C4.60374 17.6581 4.90722 17.6381 5.16988 17.51ZM13.4029 25.6456C13.42 25.7299 13.4537 25.8101 13.5021 25.8816C13.5505 25.9531 13.6128 26.0145 13.6853 26.0622C13.7578 26.11 13.8391 26.1432 13.9246 26.16C14.0101 26.1767 14.0981 26.1767 14.1836 26.1599C14.356 26.1253 14.5075 26.0246 14.6049 25.8799C14.7022 25.7353 14.7375 25.5585 14.7029 25.3882C14.6679 25.2184 14.5662 25.0692 14.42 24.9732C14.2738 24.8772 14.095 24.8422 13.9227 24.8758C13.7504 24.9101 13.599 25.0104 13.5015 25.1547C13.4041 25.299 13.3686 25.4755 13.4029 25.6456ZM10.5601 25.0336C10.5858 25.1345 10.6316 25.2294 10.6946 25.3128C10.7577 25.3961 10.8368 25.4664 10.9275 25.5196C11.0181 25.5727 11.1185 25.6076 11.2229 25.6224C11.3273 25.6371 11.4336 25.6313 11.5357 25.6054C11.7419 25.5535 11.9187 25.4228 12.0273 25.2422C12.1358 25.0616 12.1672 24.8459 12.1145 24.6425C12.0618 24.4391 11.9294 24.2646 11.7464 24.1576C11.5633 24.0505 11.3446 24.0195 11.1384 24.0715C11.0364 24.0972 10.9405 24.1425 10.8563 24.2047C10.772 24.267 10.701 24.345 10.6473 24.4344C10.5936 24.5237 10.5582 24.6226 10.5432 24.7255C10.5283 24.8283 10.534 24.933 10.5601 25.0336ZM7.93657 23.7846C7.97515 23.9086 8.03825 24.0238 8.12222 24.1236C8.20618 24.2233 8.30936 24.3057 8.42577 24.3659C8.54219 24.4262 8.66955 24.463 8.80049 24.4744C8.93144 24.4858 9.06337 24.4715 9.18868 24.4323C9.31431 24.3942 9.43106 24.3319 9.53222 24.2491C9.63338 24.1662 9.71696 24.0645 9.77815 23.9497C9.83934 23.8349 9.87695 23.7094 9.88881 23.5802C9.90067 23.451 9.88654 23.3209 9.84725 23.1971C9.76777 22.9471 9.59098 22.7384 9.3557 22.6169C9.12042 22.4954 8.84587 22.471 8.59234 22.549C8.46689 22.5874 8.35036 22.6499 8.24944 22.7328C8.14853 22.8158 8.06521 22.9176 8.00428 23.0324C7.94335 23.1472 7.90601 23.2728 7.89439 23.4018C7.88277 23.5309 7.8971 23.661 7.93657 23.7846ZM5.844 21.9441C5.89389 22.0785 5.97022 22.2017 6.0686 22.3069C6.16697 22.412 6.28545 22.4969 6.41721 22.5566C6.54897 22.6164 6.69142 22.6498 6.83634 22.6551C6.98126 22.6603 7.12581 22.6372 7.26165 22.5871C7.53036 22.483 7.74699 22.2791 7.86504 22.0191C7.98309 21.7592 7.99316 21.464 7.89309 21.1968C7.79302 20.9296 7.59079 20.7118 7.32978 20.59C7.06877 20.4683 6.76978 20.4523 6.49698 20.5456C6.22261 20.6459 5.99977 20.8495 5.87736 21.1116C5.75494 21.3738 5.74295 21.6732 5.844 21.9441ZM21.6324 22.9039C21.5297 22.9895 21.4648 23.1112 21.4514 23.2432C21.438 23.3753 21.4772 23.5072 21.5607 23.6112C21.6442 23.7152 21.7654 23.7831 21.8987 23.8005C22.0321 23.8179 22.167 23.7834 22.275 23.7043C22.3307 23.6636 22.3776 23.6122 22.4128 23.5532C22.448 23.4942 22.4708 23.4288 22.4799 23.361C22.4889 23.2931 22.4841 23.2242 22.4657 23.1582C22.4472 23.0923 22.4155 23.0306 22.3724 22.977C22.3294 22.9233 22.2758 22.8788 22.2149 22.8459C22.1541 22.8131 22.0871 22.7927 22.0181 22.7859C21.9491 22.779 21.8794 22.786 21.8131 22.8063C21.7469 22.8265 21.6854 22.8598 21.6324 22.9039ZM16.7783 24.9683C16.6426 24.9885 16.5205 25.0609 16.4387 25.1697C16.357 25.2785 16.3222 25.4148 16.342 25.5488C16.3518 25.6151 16.3747 25.6789 16.4096 25.7365C16.4444 25.7941 16.4904 25.8443 16.5449 25.8843C16.5995 25.9244 16.6615 25.9534 16.7274 25.9697C16.7933 25.9861 16.8619 25.9895 16.9291 25.9797C16.9965 25.9701 17.0613 25.9476 17.1198 25.9133C17.1784 25.879 17.2294 25.8336 17.2702 25.7798C17.3109 25.726 17.3405 25.6648 17.3572 25.5997C17.3739 25.5346 17.3774 25.4668 17.3675 25.4004C17.3576 25.3338 17.3346 25.2698 17.2996 25.2121C17.2647 25.1543 17.2185 25.1039 17.1638 25.0638C17.109 25.0237 17.0468 24.9946 16.9807 24.9782C16.9146 24.9618 16.8458 24.9585 16.7783 24.9683ZM14.2586 4.45184C14.2487 4.38535 14.2255 4.32144 14.1906 4.26378C14.1556 4.20612 14.1094 4.15585 14.0546 4.11585C13.9999 4.07585 13.9377 4.04691 13.8716 4.03069C13.8055 4.01447 13.7368 4.01129 13.6694 4.02133C13.5336 4.04105 13.4113 4.11318 13.3295 4.22185C13.2476 4.33052 13.2128 4.46683 13.2328 4.60078C13.2528 4.73474 13.3259 4.85537 13.4361 4.93615C13.5462 5.01692 13.6844 5.05122 13.8202 5.03149C13.9562 5.01193 14.0788 4.93988 14.161 4.83119C14.2432 4.72249 14.2783 4.58605 14.2586 4.45184ZM9.05146 6.3789C8.96595 6.27277 8.84131 6.20437 8.70482 6.18866C8.56832 6.17295 8.43107 6.21122 8.32309 6.29508C8.24265 6.35785 8.18289 6.44274 8.15135 6.53902C8.11982 6.6353 8.11794 6.73865 8.14594 6.83599C8.17394 6.93332 8.23058 7.02028 8.30868 7.08587C8.38678 7.15145 8.48284 7.19271 8.58471 7.20444C8.68658 7.21616 8.78969 7.19782 8.881 7.15173C8.9723 7.10564 9.0477 7.03387 9.09766 6.94551C9.14762 6.85714 9.1699 6.75615 9.16168 6.65529C9.15345 6.55443 9.1151 6.45825 9.05146 6.3789Z" fill="white"/>
</g>
</g>
<defs>
<clipPath id="clip0_2_917">
<rect width="100" height="28.3333" fill="white" transform="translate(0 0.833496)"/>
</clipPath>
</defs>
</svg>
